<mxfile host="app.diagrams.net" modified="2023-06-09T12:48:45.909Z" agent="Mozilla/5.0 (Windows NT 10.0; Win64; x64; rv:109.0) Gecko/20100101 Firefox/112.0" etag="uwihLPApc7yt59jNzjD9" version="21.3.7" type="github">
  <diagram name="第 1 页" id="ePYzZkvX7DDNfAwRGvQ_">
    <mxGraphModel dx="2440" dy="1301" grid="1" gridSize="10" guides="1" tooltips="1" connect="1" arrows="1" fold="1" page="1" pageScale="1" pageWidth="827" pageHeight="1169" math="0" shadow="0">
      <root>
        <mxCell id="0" />
        <mxCell id="1" parent="0" />
        <mxCell id="HBPzMKkoML-31Hbk_cF--1" value="&lt;br&gt;&lt;b&gt;User&lt;/b&gt;&lt;br&gt;" style="swimlane;fontStyle=0;align=center;verticalAlign=top;childLayout=stackLayout;horizontal=1;startSize=55;horizontalStack=0;resizeParent=1;resizeParentMax=0;resizeLast=0;collapsible=0;marginBottom=0;html=1;whiteSpace=wrap;" parent="1" vertex="1">
          <mxGeometry x="40" y="40" width="200" height="670" as="geometry" />
        </mxCell>
        <mxCell id="HBPzMKkoML-31Hbk_cF--2" value="attributes" style="text;html=1;strokeColor=none;fillColor=none;align=center;verticalAlign=middle;spacingLeft=4;spacingRight=4;overflow=hidden;rotatable=0;points=[[0,0.5],[1,0.5]];portConstraint=eastwest;whiteSpace=wrap;" parent="HBPzMKkoML-31Hbk_cF--1" vertex="1">
          <mxGeometry y="55" width="200" height="20" as="geometry" />
        </mxCell>
        <mxCell id="HBPzMKkoML-31Hbk_cF--3" value="id : int" style="text;html=1;strokeColor=none;fillColor=none;align=left;verticalAlign=middle;spacingLeft=4;spacingRight=4;overflow=hidden;rotatable=0;points=[[0,0.5],[1,0.5]];portConstraint=eastwest;whiteSpace=wrap;" parent="HBPzMKkoML-31Hbk_cF--1" vertex="1">
          <mxGeometry y="75" width="200" height="20" as="geometry" />
        </mxCell>
        <mxCell id="6IOU-rDuUjh9_WZzt7dj-11" value="userInfo : UserInfo" style="text;html=1;strokeColor=none;fillColor=none;align=left;verticalAlign=middle;spacingLeft=4;spacingRight=4;overflow=hidden;rotatable=0;points=[[0,0.5],[1,0.5]];portConstraint=eastwest;whiteSpace=wrap;" parent="HBPzMKkoML-31Hbk_cF--1" vertex="1">
          <mxGeometry y="95" width="200" height="20" as="geometry" />
        </mxCell>
        <mxCell id="HBPzMKkoML-31Hbk_cF--37" value="isLogin : bool" style="text;html=1;strokeColor=none;fillColor=none;align=left;verticalAlign=middle;spacingLeft=4;spacingRight=4;overflow=hidden;rotatable=0;points=[[0,0.5],[1,0.5]];portConstraint=eastwest;whiteSpace=wrap;" parent="HBPzMKkoML-31Hbk_cF--1" vertex="1">
          <mxGeometry y="115" width="200" height="20" as="geometry" />
        </mxCell>
        <mxCell id="HBPzMKkoML-31Hbk_cF--38" value="markedLabel : Label" style="text;html=1;strokeColor=none;fillColor=none;align=left;verticalAlign=middle;spacingLeft=4;spacingRight=4;overflow=hidden;rotatable=0;points=[[0,0.5],[1,0.5]];portConstraint=eastwest;whiteSpace=wrap;" parent="HBPzMKkoML-31Hbk_cF--1" vertex="1">
          <mxGeometry y="135" width="200" height="20" as="geometry" />
        </mxCell>
        <mxCell id="HBPzMKkoML-31Hbk_cF--39" value="&lt;div&gt;markedArchive : Archive[]&lt;/div&gt;" style="text;html=1;strokeColor=none;fillColor=none;align=left;verticalAlign=middle;spacingLeft=4;spacingRight=4;overflow=hidden;rotatable=0;points=[[0,0.5],[1,0.5]];portConstraint=eastwest;whiteSpace=wrap;" parent="HBPzMKkoML-31Hbk_cF--1" vertex="1">
          <mxGeometry y="155" width="200" height="20" as="geometry" />
        </mxCell>
        <mxCell id="HBPzMKkoML-31Hbk_cF--40" value="archiveHistory : Archive[]" style="text;html=1;strokeColor=none;fillColor=none;align=left;verticalAlign=middle;spacingLeft=4;spacingRight=4;overflow=hidden;rotatable=0;points=[[0,0.5],[1,0.5]];portConstraint=eastwest;whiteSpace=wrap;" parent="HBPzMKkoML-31Hbk_cF--1" vertex="1">
          <mxGeometry y="175" width="200" height="20" as="geometry" />
        </mxCell>
        <mxCell id="HBPzMKkoML-31Hbk_cF--41" value="queryHistory : QueryHistory[]" style="text;html=1;strokeColor=none;fillColor=none;align=left;verticalAlign=middle;spacingLeft=4;spacingRight=4;overflow=hidden;rotatable=0;points=[[0,0.5],[1,0.5]];portConstraint=eastwest;whiteSpace=wrap;" parent="HBPzMKkoML-31Hbk_cF--1" vertex="1">
          <mxGeometry y="195" width="200" height="20" as="geometry" />
        </mxCell>
        <mxCell id="HBPzMKkoML-31Hbk_cF--42" value="userCurrentPreference : Preference" style="text;html=1;strokeColor=none;fillColor=none;align=left;verticalAlign=middle;spacingLeft=4;spacingRight=4;overflow=hidden;rotatable=0;points=[[0,0.5],[1,0.5]];portConstraint=eastwest;whiteSpace=wrap;" parent="HBPzMKkoML-31Hbk_cF--1" vertex="1">
          <mxGeometry y="215" width="200" height="20" as="geometry" />
        </mxCell>
        <mxCell id="HBPzMKkoML-31Hbk_cF--43" value="userPreferences : Preference[]" style="text;html=1;strokeColor=none;fillColor=none;align=left;verticalAlign=middle;spacingLeft=4;spacingRight=4;overflow=hidden;rotatable=0;points=[[0,0.5],[1,0.5]];portConstraint=eastwest;whiteSpace=wrap;" parent="HBPzMKkoML-31Hbk_cF--1" vertex="1">
          <mxGeometry y="235" width="200" height="20" as="geometry" />
        </mxCell>
        <mxCell id="HBPzMKkoML-31Hbk_cF--6" value="" style="line;strokeWidth=1;fillColor=none;align=left;verticalAlign=middle;spacingTop=-1;spacingLeft=3;spacingRight=3;rotatable=0;labelPosition=right;points=[];portConstraint=eastwest;" parent="HBPzMKkoML-31Hbk_cF--1" vertex="1">
          <mxGeometry y="255" width="200" height="8" as="geometry" />
        </mxCell>
        <mxCell id="HBPzMKkoML-31Hbk_cF--7" value="operations" style="text;html=1;strokeColor=none;fillColor=none;align=center;verticalAlign=middle;spacingLeft=4;spacingRight=4;overflow=hidden;rotatable=0;points=[[0,0.5],[1,0.5]];portConstraint=eastwest;whiteSpace=wrap;" parent="HBPzMKkoML-31Hbk_cF--1" vertex="1">
          <mxGeometry y="263" width="200" height="20" as="geometry" />
        </mxCell>
        <mxCell id="HBPzMKkoML-31Hbk_cF--8" value="login() : LoginResult" style="text;html=1;strokeColor=none;fillColor=none;align=left;verticalAlign=middle;spacingLeft=4;spacingRight=4;overflow=hidden;rotatable=0;points=[[0,0.5],[1,0.5]];portConstraint=eastwest;whiteSpace=wrap;" parent="HBPzMKkoML-31Hbk_cF--1" vertex="1">
          <mxGeometry y="283" width="200" height="20" as="geometry" />
        </mxCell>
        <mxCell id="HBPzMKkoML-31Hbk_cF--36" value="logout() : loginResult" style="text;html=1;strokeColor=none;fillColor=none;align=left;verticalAlign=middle;spacingLeft=4;spacingRight=4;overflow=hidden;rotatable=0;points=[[0,0.5],[1,0.5]];portConstraint=eastwest;whiteSpace=wrap;" parent="HBPzMKkoML-31Hbk_cF--1" vertex="1">
          <mxGeometry y="303" width="200" height="20" as="geometry" />
        </mxCell>
        <mxCell id="6IOU-rDuUjh9_WZzt7dj-12" value="changeInfo(newInfo : UserInfo) " style="text;html=1;strokeColor=none;fillColor=none;align=left;verticalAlign=middle;spacingLeft=4;spacingRight=4;overflow=hidden;rotatable=0;points=[[0,0.5],[1,0.5]];portConstraint=eastwest;whiteSpace=wrap;" parent="HBPzMKkoML-31Hbk_cF--1" vertex="1">
          <mxGeometry y="323" width="200" height="20" as="geometry" />
        </mxCell>
        <mxCell id="HBPzMKkoML-31Hbk_cF--45" value="viewArchive(archive : Aechive) : bool" style="text;html=1;strokeColor=none;fillColor=none;align=left;verticalAlign=middle;spacingLeft=4;spacingRight=4;overflow=hidden;rotatable=0;points=[[0,0.5],[1,0.5]];portConstraint=eastwest;whiteSpace=wrap;" parent="HBPzMKkoML-31Hbk_cF--1" vertex="1">
          <mxGeometry y="343" width="200" height="20" as="geometry" />
        </mxCell>
        <mxCell id="HBPzMKkoML-31Hbk_cF--51" value="markArchive(archive : Aechive, cancel : bool) : bool" style="text;html=1;strokeColor=none;fillColor=none;align=left;verticalAlign=middle;spacingLeft=4;spacingRight=4;overflow=hidden;rotatable=0;points=[[0,0.5],[1,0.5]];portConstraint=eastwest;whiteSpace=wrap;" parent="HBPzMKkoML-31Hbk_cF--1" vertex="1">
          <mxGeometry y="363" width="200" height="37" as="geometry" />
        </mxCell>
        <mxCell id="HBPzMKkoML-31Hbk_cF--52" value="markLabel(label : Lebel, cancel : bool) : bool" style="text;html=1;strokeColor=none;fillColor=none;align=left;verticalAlign=middle;spacingLeft=4;spacingRight=4;overflow=hidden;rotatable=0;points=[[0,0.5],[1,0.5]];portConstraint=eastwest;whiteSpace=wrap;" parent="HBPzMKkoML-31Hbk_cF--1" vertex="1">
          <mxGeometry y="400" width="200" height="40" as="geometry" />
        </mxCell>
        <mxCell id="HBPzMKkoML-31Hbk_cF--53" value="newPreference() : Preference" style="text;html=1;strokeColor=none;fillColor=none;align=left;verticalAlign=middle;spacingLeft=4;spacingRight=4;overflow=hidden;rotatable=0;points=[[0,0.5],[1,0.5]];portConstraint=eastwest;whiteSpace=wrap;" parent="HBPzMKkoML-31Hbk_cF--1" vertex="1">
          <mxGeometry y="440" width="200" height="20" as="geometry" />
        </mxCell>
        <mxCell id="HBPzMKkoML-31Hbk_cF--54" value="editPreference(pref : Preference, delete : bool) : bool" style="text;html=1;strokeColor=none;fillColor=none;align=left;verticalAlign=middle;spacingLeft=4;spacingRight=4;overflow=hidden;rotatable=0;points=[[0,0.5],[1,0.5]];portConstraint=eastwest;whiteSpace=wrap;" parent="HBPzMKkoML-31Hbk_cF--1" vertex="1">
          <mxGeometry y="460" width="200" height="40" as="geometry" />
        </mxCell>
        <mxCell id="Vm49EQdsfF1XYpQl3Y0f-7" value="applyPreference(pref : Preference) : bool" style="text;html=1;strokeColor=none;fillColor=none;align=left;verticalAlign=middle;spacingLeft=4;spacingRight=4;overflow=hidden;rotatable=0;points=[[0,0.5],[1,0.5]];portConstraint=eastwest;whiteSpace=wrap;" parent="HBPzMKkoML-31Hbk_cF--1" vertex="1">
          <mxGeometry y="500" width="200" height="40" as="geometry" />
        </mxCell>
        <mxCell id="Vm49EQdsfF1XYpQl3Y0f-14" value="search(element : searchElement) : QueryResult" style="text;html=1;strokeColor=none;fillColor=none;align=left;verticalAlign=middle;spacingLeft=4;spacingRight=4;overflow=hidden;rotatable=0;points=[[0,0.5],[1,0.5]];portConstraint=eastwest;whiteSpace=wrap;" parent="HBPzMKkoML-31Hbk_cF--1" vertex="1">
          <mxGeometry y="540" width="200" height="40" as="geometry" />
        </mxCell>
        <mxCell id="Vm49EQdsfF1XYpQl3Y0f-16" value="requestPromotion(checkFile : File,&amp;nbsp; note : String) : PromotionAuditSession" style="text;html=1;strokeColor=none;fillColor=none;align=left;verticalAlign=middle;spacingLeft=4;spacingRight=4;overflow=hidden;rotatable=0;points=[[0,0.5],[1,0.5]];portConstraint=eastwest;whiteSpace=wrap;" parent="HBPzMKkoML-31Hbk_cF--1" vertex="1">
          <mxGeometry y="580" width="200" height="50" as="geometry" />
        </mxCell>
        <mxCell id="Vm49EQdsfF1XYpQl3Y0f-17" value="withdrawPromotionSession(session :&amp;nbsp; PromotionAuditSession)&amp;nbsp; " style="text;html=1;strokeColor=none;fillColor=none;align=left;verticalAlign=middle;spacingLeft=4;spacingRight=4;overflow=hidden;rotatable=0;points=[[0,0.5],[1,0.5]];portConstraint=eastwest;whiteSpace=wrap;" parent="HBPzMKkoML-31Hbk_cF--1" vertex="1">
          <mxGeometry y="630" width="200" height="40" as="geometry" />
        </mxCell>
        <mxCell id="HBPzMKkoML-31Hbk_cF--9" value="&lt;br&gt;&lt;b&gt;PermissionUser&lt;/b&gt;&lt;br&gt;" style="swimlane;fontStyle=0;align=center;verticalAlign=top;childLayout=stackLayout;horizontal=1;startSize=55;horizontalStack=0;resizeParent=1;resizeParentMax=0;resizeLast=0;collapsible=0;marginBottom=0;html=1;whiteSpace=wrap;" parent="1" vertex="1">
          <mxGeometry x="280" y="40" width="200" height="520" as="geometry" />
        </mxCell>
        <mxCell id="HBPzMKkoML-31Hbk_cF--10" value="attributes" style="text;html=1;strokeColor=none;fillColor=none;align=center;verticalAlign=middle;spacingLeft=4;spacingRight=4;overflow=hidden;rotatable=0;points=[[0,0.5],[1,0.5]];portConstraint=eastwest;whiteSpace=wrap;" parent="HBPzMKkoML-31Hbk_cF--9" vertex="1">
          <mxGeometry y="55" width="200" height="20" as="geometry" />
        </mxCell>
        <mxCell id="HBPzMKkoML-31Hbk_cF--11" value="verifierId : int" style="text;html=1;strokeColor=none;fillColor=none;align=left;verticalAlign=middle;spacingLeft=4;spacingRight=4;overflow=hidden;rotatable=0;points=[[0,0.5],[1,0.5]];portConstraint=eastwest;whiteSpace=wrap;" parent="HBPzMKkoML-31Hbk_cF--9" vertex="1">
          <mxGeometry y="75" width="200" height="20" as="geometry" />
        </mxCell>
        <mxCell id="HBPzMKkoML-31Hbk_cF--46" value="editHistory : EditHistory[]" style="text;html=1;strokeColor=none;fillColor=none;align=left;verticalAlign=middle;spacingLeft=4;spacingRight=4;overflow=hidden;rotatable=0;points=[[0,0.5],[1,0.5]];portConstraint=eastwest;whiteSpace=wrap;" parent="HBPzMKkoML-31Hbk_cF--9" vertex="1">
          <mxGeometry y="95" width="200" height="20" as="geometry" />
        </mxCell>
        <mxCell id="HBPzMKkoML-31Hbk_cF--48" value="draftArchiveList : ArchiveDraft[]" style="text;html=1;strokeColor=none;fillColor=none;align=left;verticalAlign=middle;spacingLeft=4;spacingRight=4;overflow=hidden;rotatable=0;points=[[0,0.5],[1,0.5]];portConstraint=eastwest;whiteSpace=wrap;" parent="HBPzMKkoML-31Hbk_cF--9" vertex="1">
          <mxGeometry y="115" width="200" height="20" as="geometry" />
        </mxCell>
        <mxCell id="HBPzMKkoML-31Hbk_cF--49" value="inAuditArchiveList : ArchiveDraft[]" style="text;html=1;strokeColor=none;fillColor=none;align=left;verticalAlign=middle;spacingLeft=4;spacingRight=4;overflow=hidden;rotatable=0;points=[[0,0.5],[1,0.5]];portConstraint=eastwest;whiteSpace=wrap;" parent="HBPzMKkoML-31Hbk_cF--9" vertex="1">
          <mxGeometry y="135" width="200" height="20" as="geometry" />
        </mxCell>
        <mxCell id="HBPzMKkoML-31Hbk_cF--50" value="auditedArchiveList : Archive[]" style="text;html=1;strokeColor=none;fillColor=none;align=left;verticalAlign=middle;spacingLeft=4;spacingRight=4;overflow=hidden;rotatable=0;points=[[0,0.5],[1,0.5]];portConstraint=eastwest;whiteSpace=wrap;" parent="HBPzMKkoML-31Hbk_cF--9" vertex="1">
          <mxGeometry y="155" width="200" height="20" as="geometry" />
        </mxCell>
        <mxCell id="Vm49EQdsfF1XYpQl3Y0f-9" value="dataBuffer : File" style="text;html=1;strokeColor=none;fillColor=none;align=left;verticalAlign=middle;spacingLeft=4;spacingRight=4;overflow=hidden;rotatable=0;points=[[0,0.5],[1,0.5]];portConstraint=eastwest;whiteSpace=wrap;" parent="HBPzMKkoML-31Hbk_cF--9" vertex="1">
          <mxGeometry y="175" width="200" height="20" as="geometry" />
        </mxCell>
        <mxCell id="HBPzMKkoML-31Hbk_cF--14" value="" style="line;strokeWidth=1;fillColor=none;align=left;verticalAlign=middle;spacingTop=-1;spacingLeft=3;spacingRight=3;rotatable=0;labelPosition=right;points=[];portConstraint=eastwest;" parent="HBPzMKkoML-31Hbk_cF--9" vertex="1">
          <mxGeometry y="195" width="200" height="8" as="geometry" />
        </mxCell>
        <mxCell id="HBPzMKkoML-31Hbk_cF--15" value="operations" style="text;html=1;strokeColor=none;fillColor=none;align=center;verticalAlign=middle;spacingLeft=4;spacingRight=4;overflow=hidden;rotatable=0;points=[[0,0.5],[1,0.5]];portConstraint=eastwest;whiteSpace=wrap;" parent="HBPzMKkoML-31Hbk_cF--9" vertex="1">
          <mxGeometry y="203" width="200" height="20" as="geometry" />
        </mxCell>
        <mxCell id="HBPzMKkoML-31Hbk_cF--16" value="editArchive(archive : Archive) : ArchiveDraft" style="text;html=1;strokeColor=none;fillColor=none;align=left;verticalAlign=middle;spacingLeft=4;spacingRight=4;overflow=hidden;rotatable=0;points=[[0,0.5],[1,0.5]];portConstraint=eastwest;whiteSpace=wrap;" parent="HBPzMKkoML-31Hbk_cF--9" vertex="1">
          <mxGeometry y="223" width="200" height="37" as="geometry" />
        </mxCell>
        <mxCell id="HBPzMKkoML-31Hbk_cF--47" value="newArchive() : ArchiveDraft" style="text;html=1;strokeColor=none;fillColor=none;align=left;verticalAlign=middle;spacingLeft=4;spacingRight=4;overflow=hidden;rotatable=0;points=[[0,0.5],[1,0.5]];portConstraint=eastwest;whiteSpace=wrap;" parent="HBPzMKkoML-31Hbk_cF--9" vertex="1">
          <mxGeometry y="260" width="200" height="20" as="geometry" />
        </mxCell>
        <mxCell id="Vm49EQdsfF1XYpQl3Y0f-8" value="uploadData(file : File) : bool" style="text;html=1;strokeColor=none;fillColor=none;align=left;verticalAlign=middle;spacingLeft=4;spacingRight=4;overflow=hidden;rotatable=0;points=[[0,0.5],[1,0.5]];portConstraint=eastwest;whiteSpace=wrap;" parent="HBPzMKkoML-31Hbk_cF--9" vertex="1">
          <mxGeometry y="280" width="200" height="20" as="geometry" />
        </mxCell>
        <mxCell id="Vm49EQdsfF1XYpQl3Y0f-10" value="checkDataValid() : bool" style="text;html=1;strokeColor=none;fillColor=none;align=left;verticalAlign=middle;spacingLeft=4;spacingRight=4;overflow=hidden;rotatable=0;points=[[0,0.5],[1,0.5]];portConstraint=eastwest;whiteSpace=wrap;" parent="HBPzMKkoML-31Hbk_cF--9" vertex="1">
          <mxGeometry y="300" width="200" height="20" as="geometry" />
        </mxCell>
        <mxCell id="Vm49EQdsfF1XYpQl3Y0f-11" value="applyDataToDraft() : bool" style="text;html=1;strokeColor=none;fillColor=none;align=left;verticalAlign=middle;spacingLeft=4;spacingRight=4;overflow=hidden;rotatable=0;points=[[0,0.5],[1,0.5]];portConstraint=eastwest;whiteSpace=wrap;" parent="HBPzMKkoML-31Hbk_cF--9" vertex="1">
          <mxGeometry y="320" width="200" height="20" as="geometry" />
        </mxCell>
        <mxCell id="Vm49EQdsfF1XYpQl3Y0f-5" value="deleteDraft(draft : ArchiveDraft) : bool" style="text;html=1;strokeColor=none;fillColor=none;align=left;verticalAlign=middle;spacingLeft=4;spacingRight=4;overflow=hidden;rotatable=0;points=[[0,0.5],[1,0.5]];portConstraint=eastwest;whiteSpace=wrap;" parent="HBPzMKkoML-31Hbk_cF--9" vertex="1">
          <mxGeometry y="340" width="200" height="40" as="geometry" />
        </mxCell>
        <mxCell id="Vm49EQdsfF1XYpQl3Y0f-1" value="toAudit(archive : ArchiveDraft, note : String) : ArchiveAuditSession" style="text;html=1;strokeColor=none;fillColor=none;align=left;verticalAlign=middle;spacingLeft=4;spacingRight=4;overflow=hidden;rotatable=0;points=[[0,0.5],[1,0.5]];portConstraint=eastwest;whiteSpace=wrap;" parent="HBPzMKkoML-31Hbk_cF--9" vertex="1">
          <mxGeometry y="380" width="200" height="40" as="geometry" />
        </mxCell>
        <mxCell id="Vm49EQdsfF1XYpQl3Y0f-2" value="toAuditAll(archives : ArchiveDraft[] , note : String) : ArchiveAuditSession" style="text;html=1;strokeColor=none;fillColor=none;align=left;verticalAlign=middle;spacingLeft=4;spacingRight=4;overflow=hidden;rotatable=0;points=[[0,0.5],[1,0.5]];portConstraint=eastwest;whiteSpace=wrap;" parent="HBPzMKkoML-31Hbk_cF--9" vertex="1">
          <mxGeometry y="420" width="200" height="40" as="geometry" />
        </mxCell>
        <mxCell id="Vm49EQdsfF1XYpQl3Y0f-3" value="withdrawSession(session : ArchiveAuditSession)" style="text;html=1;strokeColor=none;fillColor=none;align=left;verticalAlign=middle;spacingLeft=4;spacingRight=4;overflow=hidden;rotatable=0;points=[[0,0.5],[1,0.5]];portConstraint=eastwest;whiteSpace=wrap;" parent="HBPzMKkoML-31Hbk_cF--9" vertex="1">
          <mxGeometry y="460" width="200" height="40" as="geometry" />
        </mxCell>
        <mxCell id="Vm49EQdsfF1XYpQl3Y0f-6" value="launchDataProcessor() : bool" style="text;html=1;strokeColor=none;fillColor=none;align=left;verticalAlign=middle;spacingLeft=4;spacingRight=4;overflow=hidden;rotatable=0;points=[[0,0.5],[1,0.5]];portConstraint=eastwest;whiteSpace=wrap;" parent="HBPzMKkoML-31Hbk_cF--9" vertex="1">
          <mxGeometry y="500" width="200" height="20" as="geometry" />
        </mxCell>
        <mxCell id="HBPzMKkoML-31Hbk_cF--25" value="&lt;br&gt;&lt;b&gt;Admin&lt;/b&gt;" style="swimlane;fontStyle=0;align=center;verticalAlign=top;childLayout=stackLayout;horizontal=1;startSize=55;horizontalStack=0;resizeParent=1;resizeParentMax=0;resizeLast=0;collapsible=0;marginBottom=0;html=1;whiteSpace=wrap;" parent="1" vertex="1">
          <mxGeometry x="760" y="40" width="200" height="320" as="geometry" />
        </mxCell>
        <mxCell id="HBPzMKkoML-31Hbk_cF--26" value="attributes" style="text;html=1;strokeColor=none;fillColor=none;align=center;verticalAlign=middle;spacingLeft=4;spacingRight=4;overflow=hidden;rotatable=0;points=[[0,0.5],[1,0.5]];portConstraint=eastwest;whiteSpace=wrap;" parent="HBPzMKkoML-31Hbk_cF--25" vertex="1">
          <mxGeometry y="55" width="200" height="20" as="geometry" />
        </mxCell>
        <mxCell id="HBPzMKkoML-31Hbk_cF--30" value="" style="line;strokeWidth=1;fillColor=none;align=left;verticalAlign=middle;spacingTop=-1;spacingLeft=3;spacingRight=3;rotatable=0;labelPosition=right;points=[];portConstraint=eastwest;" parent="HBPzMKkoML-31Hbk_cF--25" vertex="1">
          <mxGeometry y="75" width="200" height="8" as="geometry" />
        </mxCell>
        <mxCell id="HBPzMKkoML-31Hbk_cF--31" value="operations" style="text;html=1;strokeColor=none;fillColor=none;align=center;verticalAlign=middle;spacingLeft=4;spacingRight=4;overflow=hidden;rotatable=0;points=[[0,0.5],[1,0.5]];portConstraint=eastwest;whiteSpace=wrap;" parent="HBPzMKkoML-31Hbk_cF--25" vertex="1">
          <mxGeometry y="83" width="200" height="20" as="geometry" />
        </mxCell>
        <mxCell id="HBPzMKkoML-31Hbk_cF--32" value="assignAuditor(id : int) : bool " style="text;html=1;strokeColor=none;fillColor=none;align=left;verticalAlign=middle;spacingLeft=4;spacingRight=4;overflow=hidden;rotatable=0;points=[[0,0.5],[1,0.5]];portConstraint=eastwest;whiteSpace=wrap;" parent="HBPzMKkoML-31Hbk_cF--25" vertex="1">
          <mxGeometry y="103" width="200" height="20" as="geometry" />
        </mxCell>
        <mxCell id="6IOU-rDuUjh9_WZzt7dj-13" value="forceUpdateArchive(archive : Archive, log : bool)" style="text;html=1;strokeColor=none;fillColor=none;align=left;verticalAlign=middle;spacingLeft=4;spacingRight=4;overflow=hidden;rotatable=0;points=[[0,0.5],[1,0.5]];portConstraint=eastwest;whiteSpace=wrap;" parent="HBPzMKkoML-31Hbk_cF--25" vertex="1">
          <mxGeometry y="123" width="200" height="37" as="geometry" />
        </mxCell>
        <mxCell id="6IOU-rDuUjh9_WZzt7dj-14" value="setUserPermission(id : int, permission : String) : bool" style="text;html=1;strokeColor=none;fillColor=none;align=left;verticalAlign=middle;spacingLeft=4;spacingRight=4;overflow=hidden;rotatable=0;points=[[0,0.5],[1,0.5]];portConstraint=eastwest;whiteSpace=wrap;" parent="HBPzMKkoML-31Hbk_cF--25" vertex="1">
          <mxGeometry y="160" width="200" height="40" as="geometry" />
        </mxCell>
        <mxCell id="6IOU-rDuUjh9_WZzt7dj-15" value="banUser(id : int, time : TimeStamp) : bool" style="text;html=1;strokeColor=none;fillColor=none;align=left;verticalAlign=middle;spacingLeft=4;spacingRight=4;overflow=hidden;rotatable=0;points=[[0,0.5],[1,0.5]];portConstraint=eastwest;whiteSpace=wrap;" parent="HBPzMKkoML-31Hbk_cF--25" vertex="1">
          <mxGeometry y="200" width="200" height="30" as="geometry" />
        </mxCell>
        <mxCell id="6IOU-rDuUjh9_WZzt7dj-20" value="changePassword(id : int, password : String) : bool" style="text;html=1;strokeColor=none;fillColor=none;align=left;verticalAlign=middle;spacingLeft=4;spacingRight=4;overflow=hidden;rotatable=0;points=[[0,0.5],[1,0.5]];portConstraint=eastwest;whiteSpace=wrap;" parent="HBPzMKkoML-31Hbk_cF--25" vertex="1">
          <mxGeometry y="230" width="200" height="40" as="geometry" />
        </mxCell>
        <mxCell id="6IOU-rDuUjh9_WZzt7dj-17" value="changeUserData(id : int, userData : User) : bool" style="text;html=1;strokeColor=none;fillColor=none;align=left;verticalAlign=middle;spacingLeft=4;spacingRight=4;overflow=hidden;rotatable=0;points=[[0,0.5],[1,0.5]];portConstraint=eastwest;whiteSpace=wrap;" parent="HBPzMKkoML-31Hbk_cF--25" vertex="1">
          <mxGeometry y="270" width="200" height="30" as="geometry" />
        </mxCell>
        <mxCell id="6IOU-rDuUjh9_WZzt7dj-18" value="&lt;div&gt;deleteAccount(id : int) : bool&lt;/div&gt;" style="text;html=1;strokeColor=none;fillColor=none;align=left;verticalAlign=middle;spacingLeft=4;spacingRight=4;overflow=hidden;rotatable=0;points=[[0,0.5],[1,0.5]];portConstraint=eastwest;whiteSpace=wrap;" parent="HBPzMKkoML-31Hbk_cF--25" vertex="1">
          <mxGeometry y="300" width="200" height="20" as="geometry" />
        </mxCell>
        <mxCell id="HBPzMKkoML-31Hbk_cF--17" value="&lt;br&gt;&lt;b&gt;Auditor&lt;/b&gt;&lt;br&gt;" style="swimlane;fontStyle=0;align=center;verticalAlign=top;childLayout=stackLayout;horizontal=1;startSize=55;horizontalStack=0;resizeParent=1;resizeParentMax=0;resizeLast=0;collapsible=0;marginBottom=0;html=1;whiteSpace=wrap;" parent="1" vertex="1">
          <mxGeometry x="520" y="40" width="200" height="250" as="geometry" />
        </mxCell>
        <mxCell id="HBPzMKkoML-31Hbk_cF--18" value="attributes" style="text;html=1;strokeColor=none;fillColor=none;align=center;verticalAlign=middle;spacingLeft=4;spacingRight=4;overflow=hidden;rotatable=0;points=[[0,0.5],[1,0.5]];portConstraint=eastwest;whiteSpace=wrap;" parent="HBPzMKkoML-31Hbk_cF--17" vertex="1">
          <mxGeometry y="55" width="200" height="20" as="geometry" />
        </mxCell>
        <mxCell id="HBPzMKkoML-31Hbk_cF--19" value="toAuditArchive : ArchiveAuditSession[]" style="text;html=1;strokeColor=none;fillColor=none;align=left;verticalAlign=middle;spacingLeft=4;spacingRight=4;overflow=hidden;rotatable=0;points=[[0,0.5],[1,0.5]];portConstraint=eastwest;whiteSpace=wrap;" parent="HBPzMKkoML-31Hbk_cF--17" vertex="1">
          <mxGeometry y="75" width="200" height="35" as="geometry" />
        </mxCell>
        <mxCell id="Vm49EQdsfF1XYpQl3Y0f-18" value="toAuditPromotion : PromotionAuditSession[]" style="text;html=1;strokeColor=none;fillColor=none;align=left;verticalAlign=middle;spacingLeft=4;spacingRight=4;overflow=hidden;rotatable=0;points=[[0,0.5],[1,0.5]];portConstraint=eastwest;whiteSpace=wrap;" parent="HBPzMKkoML-31Hbk_cF--17" vertex="1">
          <mxGeometry y="110" width="200" height="35" as="geometry" />
        </mxCell>
        <mxCell id="6IOU-rDuUjh9_WZzt7dj-10" value="auditHistory : AuditHistory[]" style="text;html=1;strokeColor=none;fillColor=none;align=left;verticalAlign=middle;spacingLeft=4;spacingRight=4;overflow=hidden;rotatable=0;points=[[0,0.5],[1,0.5]];portConstraint=eastwest;whiteSpace=wrap;" parent="HBPzMKkoML-31Hbk_cF--17" vertex="1">
          <mxGeometry y="145" width="200" height="20" as="geometry" />
        </mxCell>
        <mxCell id="HBPzMKkoML-31Hbk_cF--22" value="" style="line;strokeWidth=1;fillColor=none;align=left;verticalAlign=middle;spacingTop=-1;spacingLeft=3;spacingRight=3;rotatable=0;labelPosition=right;points=[];portConstraint=eastwest;" parent="HBPzMKkoML-31Hbk_cF--17" vertex="1">
          <mxGeometry y="165" width="200" height="8" as="geometry" />
        </mxCell>
        <mxCell id="HBPzMKkoML-31Hbk_cF--23" value="operations" style="text;html=1;strokeColor=none;fillColor=none;align=center;verticalAlign=middle;spacingLeft=4;spacingRight=4;overflow=hidden;rotatable=0;points=[[0,0.5],[1,0.5]];portConstraint=eastwest;whiteSpace=wrap;" parent="HBPzMKkoML-31Hbk_cF--17" vertex="1">
          <mxGeometry y="173" width="200" height="20" as="geometry" />
        </mxCell>
        <mxCell id="Vm49EQdsfF1XYpQl3Y0f-19" value="audit(session : AuditSession, result : bool, note : String)" style="text;html=1;strokeColor=none;fillColor=none;align=left;verticalAlign=middle;spacingLeft=4;spacingRight=4;overflow=hidden;rotatable=0;points=[[0,0.5],[1,0.5]];portConstraint=eastwest;whiteSpace=wrap;" parent="HBPzMKkoML-31Hbk_cF--17" vertex="1">
          <mxGeometry y="193" width="200" height="37" as="geometry" />
        </mxCell>
        <mxCell id="Vm49EQdsfF1XYpQl3Y0f-12" value="promoteUser(id : int) : bool " style="text;html=1;strokeColor=none;fillColor=none;align=left;verticalAlign=middle;spacingLeft=4;spacingRight=4;overflow=hidden;rotatable=0;points=[[0,0.5],[1,0.5]];portConstraint=eastwest;whiteSpace=wrap;" parent="HBPzMKkoML-31Hbk_cF--17" vertex="1">
          <mxGeometry y="230" width="200" height="20" as="geometry" />
        </mxCell>
        <mxCell id="enL9vVGVBLsAl_YUKNi3-2" style="edgeStyle=orthogonalEdgeStyle;rounded=0;orthogonalLoop=1;jettySize=auto;html=1;exitX=0;exitY=0.5;exitDx=0;exitDy=0;entryX=1;entryY=0.5;entryDx=0;entryDy=0;" parent="1" source="HBPzMKkoML-31Hbk_cF--10" target="HBPzMKkoML-31Hbk_cF--2" edge="1">
          <mxGeometry relative="1" as="geometry" />
        </mxCell>
        <mxCell id="enL9vVGVBLsAl_YUKNi3-3" style="edgeStyle=orthogonalEdgeStyle;rounded=0;orthogonalLoop=1;jettySize=auto;html=1;exitX=0;exitY=0.5;exitDx=0;exitDy=0;entryX=1;entryY=0.5;entryDx=0;entryDy=0;" parent="1" source="HBPzMKkoML-31Hbk_cF--18" target="HBPzMKkoML-31Hbk_cF--10" edge="1">
          <mxGeometry relative="1" as="geometry" />
        </mxCell>
        <mxCell id="enL9vVGVBLsAl_YUKNi3-4" style="edgeStyle=orthogonalEdgeStyle;rounded=0;orthogonalLoop=1;jettySize=auto;html=1;exitX=0;exitY=0.5;exitDx=0;exitDy=0;entryX=1;entryY=0.5;entryDx=0;entryDy=0;" parent="1" source="HBPzMKkoML-31Hbk_cF--26" target="HBPzMKkoML-31Hbk_cF--18" edge="1">
          <mxGeometry relative="1" as="geometry" />
        </mxCell>
        <mxCell id="enL9vVGVBLsAl_YUKNi3-5" value="&lt;b&gt;&lt;br&gt;UserInfo&lt;/b&gt;" style="swimlane;fontStyle=0;align=center;verticalAlign=top;childLayout=stackLayout;horizontal=1;startSize=55;horizontalStack=0;resizeParent=1;resizeParentMax=0;resizeLast=0;collapsible=0;marginBottom=0;html=1;whiteSpace=wrap;" parent="1" vertex="1">
          <mxGeometry x="40" y="762" width="140" height="223" as="geometry" />
        </mxCell>
        <mxCell id="enL9vVGVBLsAl_YUKNi3-6" value="attributes" style="text;html=1;strokeColor=none;fillColor=none;align=center;verticalAlign=middle;spacingLeft=4;spacingRight=4;overflow=hidden;rotatable=0;points=[[0,0.5],[1,0.5]];portConstraint=eastwest;whiteSpace=wrap;" parent="enL9vVGVBLsAl_YUKNi3-5" vertex="1">
          <mxGeometry y="55" width="140" height="20" as="geometry" />
        </mxCell>
        <mxCell id="enL9vVGVBLsAl_YUKNi3-17" value="&lt;div&gt;userName : String&lt;/div&gt;" style="text;html=1;strokeColor=none;fillColor=none;align=left;verticalAlign=middle;spacingLeft=4;spacingRight=4;overflow=hidden;rotatable=0;points=[[0,0.5],[1,0.5]];portConstraint=eastwest;whiteSpace=wrap;" parent="enL9vVGVBLsAl_YUKNi3-5" vertex="1">
          <mxGeometry y="75" width="140" height="20" as="geometry" />
        </mxCell>
        <mxCell id="enL9vVGVBLsAl_YUKNi3-15" value="gender : String" style="text;html=1;strokeColor=none;fillColor=none;align=left;verticalAlign=middle;spacingLeft=4;spacingRight=4;overflow=hidden;rotatable=0;points=[[0,0.5],[1,0.5]];portConstraint=eastwest;whiteSpace=wrap;" parent="enL9vVGVBLsAl_YUKNi3-5" vertex="1">
          <mxGeometry y="95" width="140" height="20" as="geometry" />
        </mxCell>
        <mxCell id="enL9vVGVBLsAl_YUKNi3-7" value="&lt;div&gt;role : String&lt;/div&gt;" style="text;html=1;strokeColor=none;fillColor=none;align=left;verticalAlign=middle;spacingLeft=4;spacingRight=4;overflow=hidden;rotatable=0;points=[[0,0.5],[1,0.5]];portConstraint=eastwest;whiteSpace=wrap;" parent="enL9vVGVBLsAl_YUKNi3-5" vertex="1">
          <mxGeometry y="115" width="140" height="20" as="geometry" />
        </mxCell>
        <mxCell id="enL9vVGVBLsAl_YUKNi3-18" value="&lt;div&gt;country : String&lt;/div&gt;" style="text;html=1;strokeColor=none;fillColor=none;align=left;verticalAlign=middle;spacingLeft=4;spacingRight=4;overflow=hidden;rotatable=0;points=[[0,0.5],[1,0.5]];portConstraint=eastwest;whiteSpace=wrap;" parent="enL9vVGVBLsAl_YUKNi3-5" vertex="1">
          <mxGeometry y="135" width="140" height="20" as="geometry" />
        </mxCell>
        <mxCell id="enL9vVGVBLsAl_YUKNi3-13" value="university : String" style="text;html=1;strokeColor=none;fillColor=none;align=left;verticalAlign=middle;spacingLeft=4;spacingRight=4;overflow=hidden;rotatable=0;points=[[0,0.5],[1,0.5]];portConstraint=eastwest;whiteSpace=wrap;" parent="enL9vVGVBLsAl_YUKNi3-5" vertex="1">
          <mxGeometry y="155" width="140" height="20" as="geometry" />
        </mxCell>
        <mxCell id="enL9vVGVBLsAl_YUKNi3-14" value="email : String" style="text;html=1;strokeColor=none;fillColor=none;align=left;verticalAlign=middle;spacingLeft=4;spacingRight=4;overflow=hidden;rotatable=0;points=[[0,0.5],[1,0.5]];portConstraint=eastwest;whiteSpace=wrap;" parent="enL9vVGVBLsAl_YUKNi3-5" vertex="1">
          <mxGeometry y="175" width="140" height="20" as="geometry" />
        </mxCell>
        <mxCell id="enL9vVGVBLsAl_YUKNi3-10" value="" style="line;strokeWidth=1;fillColor=none;align=left;verticalAlign=middle;spacingTop=-1;spacingLeft=3;spacingRight=3;rotatable=0;labelPosition=right;points=[];portConstraint=eastwest;" parent="enL9vVGVBLsAl_YUKNi3-5" vertex="1">
          <mxGeometry y="195" width="140" height="8" as="geometry" />
        </mxCell>
        <mxCell id="enL9vVGVBLsAl_YUKNi3-11" value="operations" style="text;html=1;strokeColor=none;fillColor=none;align=center;verticalAlign=middle;spacingLeft=4;spacingRight=4;overflow=hidden;rotatable=0;points=[[0,0.5],[1,0.5]];portConstraint=eastwest;whiteSpace=wrap;" parent="enL9vVGVBLsAl_YUKNi3-5" vertex="1">
          <mxGeometry y="203" width="140" height="20" as="geometry" />
        </mxCell>
        <mxCell id="enL9vVGVBLsAl_YUKNi3-19" value="&lt;br&gt;&lt;div&gt;&lt;b&gt;AuditSession&lt;/b&gt;&lt;/div&gt;&lt;div&gt;{abstract}&lt;b&gt;&lt;br&gt;&lt;/b&gt;&lt;/div&gt;" style="swimlane;fontStyle=0;align=center;verticalAlign=top;childLayout=stackLayout;horizontal=1;startSize=55;horizontalStack=0;resizeParent=1;resizeParentMax=0;resizeLast=0;collapsible=0;marginBottom=0;html=1;whiteSpace=wrap;" parent="1" vertex="1">
          <mxGeometry x="1040" y="40" width="240" height="323" as="geometry" />
        </mxCell>
        <mxCell id="enL9vVGVBLsAl_YUKNi3-20" value="attributes" style="text;html=1;strokeColor=none;fillColor=none;align=center;verticalAlign=middle;spacingLeft=4;spacingRight=4;overflow=hidden;rotatable=0;points=[[0,0.5],[1,0.5]];portConstraint=eastwest;whiteSpace=wrap;" parent="enL9vVGVBLsAl_YUKNi3-19" vertex="1">
          <mxGeometry y="55" width="240" height="20" as="geometry" />
        </mxCell>
        <mxCell id="enL9vVGVBLsAl_YUKNi3-25" value="&lt;div&gt;sessionId : int&lt;/div&gt;" style="text;html=1;strokeColor=none;fillColor=none;align=left;verticalAlign=middle;spacingLeft=4;spacingRight=4;overflow=hidden;rotatable=0;points=[[0,0.5],[1,0.5]];portConstraint=eastwest;whiteSpace=wrap;" parent="enL9vVGVBLsAl_YUKNi3-19" vertex="1">
          <mxGeometry y="75" width="240" height="20" as="geometry" />
        </mxCell>
        <mxCell id="enL9vVGVBLsAl_YUKNi3-26" value="&lt;div&gt;applicantId : int&lt;/div&gt;" style="text;html=1;strokeColor=none;fillColor=none;align=left;verticalAlign=middle;spacingLeft=4;spacingRight=4;overflow=hidden;rotatable=0;points=[[0,0.5],[1,0.5]];portConstraint=eastwest;whiteSpace=wrap;" parent="enL9vVGVBLsAl_YUKNi3-19" vertex="1">
          <mxGeometry y="95" width="240" height="20" as="geometry" />
        </mxCell>
        <mxCell id="enL9vVGVBLsAl_YUKNi3-21" value="applicationDate : DateTime" style="text;html=1;strokeColor=none;fillColor=none;align=left;verticalAlign=middle;spacingLeft=4;spacingRight=4;overflow=hidden;rotatable=0;points=[[0,0.5],[1,0.5]];portConstraint=eastwest;whiteSpace=wrap;" parent="enL9vVGVBLsAl_YUKNi3-19" vertex="1">
          <mxGeometry y="115" width="240" height="20" as="geometry" />
        </mxCell>
        <mxCell id="enL9vVGVBLsAl_YUKNi3-30" value="&lt;div&gt;note : String&lt;/div&gt;" style="text;html=1;strokeColor=none;fillColor=none;align=left;verticalAlign=middle;spacingLeft=4;spacingRight=4;overflow=hidden;rotatable=0;points=[[0,0.5],[1,0.5]];portConstraint=eastwest;whiteSpace=wrap;" parent="enL9vVGVBLsAl_YUKNi3-19" vertex="1">
          <mxGeometry y="135" width="240" height="20" as="geometry" />
        </mxCell>
        <mxCell id="enL9vVGVBLsAl_YUKNi3-28" value="status : EnumAuditSessionStatus" style="text;html=1;strokeColor=none;fillColor=none;align=left;verticalAlign=middle;spacingLeft=4;spacingRight=4;overflow=hidden;rotatable=0;points=[[0,0.5],[1,0.5]];portConstraint=eastwest;whiteSpace=wrap;" parent="enL9vVGVBLsAl_YUKNi3-19" vertex="1">
          <mxGeometry y="155" width="240" height="20" as="geometry" />
        </mxCell>
        <mxCell id="enL9vVGVBLsAl_YUKNi3-27" value="&lt;div&gt;result : EnumAuditSessionResult&lt;br&gt;&lt;/div&gt;" style="text;html=1;strokeColor=none;fillColor=none;align=left;verticalAlign=middle;spacingLeft=4;spacingRight=4;overflow=hidden;rotatable=0;points=[[0,0.5],[1,0.5]];portConstraint=eastwest;whiteSpace=wrap;" parent="enL9vVGVBLsAl_YUKNi3-19" vertex="1">
          <mxGeometry y="175" width="240" height="20" as="geometry" />
        </mxCell>
        <mxCell id="enL9vVGVBLsAl_YUKNi3-29" value="auditorId : int" style="text;html=1;strokeColor=none;fillColor=none;align=left;verticalAlign=middle;spacingLeft=4;spacingRight=4;overflow=hidden;rotatable=0;points=[[0,0.5],[1,0.5]];portConstraint=eastwest;whiteSpace=wrap;" parent="enL9vVGVBLsAl_YUKNi3-19" vertex="1">
          <mxGeometry y="195" width="240" height="20" as="geometry" />
        </mxCell>
        <mxCell id="enL9vVGVBLsAl_YUKNi3-35" value="additionalInfo : String" style="text;html=1;strokeColor=none;fillColor=none;align=left;verticalAlign=middle;spacingLeft=4;spacingRight=4;overflow=hidden;rotatable=0;points=[[0,0.5],[1,0.5]];portConstraint=eastwest;whiteSpace=wrap;" parent="enL9vVGVBLsAl_YUKNi3-19" vertex="1">
          <mxGeometry y="215" width="240" height="20" as="geometry" />
        </mxCell>
        <mxCell id="enL9vVGVBLsAl_YUKNi3-22" value="" style="line;strokeWidth=1;fillColor=none;align=left;verticalAlign=middle;spacingTop=-1;spacingLeft=3;spacingRight=3;rotatable=0;labelPosition=right;points=[];portConstraint=eastwest;" parent="enL9vVGVBLsAl_YUKNi3-19" vertex="1">
          <mxGeometry y="235" width="240" height="8" as="geometry" />
        </mxCell>
        <mxCell id="enL9vVGVBLsAl_YUKNi3-23" value="operations" style="text;html=1;strokeColor=none;fillColor=none;align=center;verticalAlign=middle;spacingLeft=4;spacingRight=4;overflow=hidden;rotatable=0;points=[[0,0.5],[1,0.5]];portConstraint=eastwest;whiteSpace=wrap;" parent="enL9vVGVBLsAl_YUKNi3-19" vertex="1">
          <mxGeometry y="243" width="240" height="20" as="geometry" />
        </mxCell>
        <mxCell id="enL9vVGVBLsAl_YUKNi3-32" value="&lt;div&gt;withDraw()&lt;/div&gt;" style="text;html=1;strokeColor=none;fillColor=none;align=left;verticalAlign=middle;spacingLeft=4;spacingRight=4;overflow=hidden;rotatable=0;points=[[0,0.5],[1,0.5]];portConstraint=eastwest;whiteSpace=wrap;" parent="enL9vVGVBLsAl_YUKNi3-19" vertex="1">
          <mxGeometry y="263" width="240" height="20" as="geometry" />
        </mxCell>
        <mxCell id="enL9vVGVBLsAl_YUKNi3-33" value="pass(note : String)" style="text;html=1;strokeColor=none;fillColor=none;align=left;verticalAlign=middle;spacingLeft=4;spacingRight=4;overflow=hidden;rotatable=0;points=[[0,0.5],[1,0.5]];portConstraint=eastwest;whiteSpace=wrap;" parent="enL9vVGVBLsAl_YUKNi3-19" vertex="1">
          <mxGeometry y="283" width="240" height="20" as="geometry" />
        </mxCell>
        <mxCell id="enL9vVGVBLsAl_YUKNi3-34" value="deny(resaon : String, suggestion : String)" style="text;html=1;strokeColor=none;fillColor=none;align=left;verticalAlign=middle;spacingLeft=4;spacingRight=4;overflow=hidden;rotatable=0;points=[[0,0.5],[1,0.5]];portConstraint=eastwest;whiteSpace=wrap;" parent="enL9vVGVBLsAl_YUKNi3-19" vertex="1">
          <mxGeometry y="303" width="240" height="20" as="geometry" />
        </mxCell>
        <mxCell id="enL9vVGVBLsAl_YUKNi3-48" style="rounded=0;orthogonalLoop=1;jettySize=auto;html=1;exitX=0.5;exitY=0;exitDx=0;exitDy=0;" parent="1" source="enL9vVGVBLsAl_YUKNi3-36" target="enL9vVGVBLsAl_YUKNi3-19" edge="1">
          <mxGeometry relative="1" as="geometry" />
        </mxCell>
        <mxCell id="enL9vVGVBLsAl_YUKNi3-36" value="&lt;div&gt;&lt;br&gt;&lt;/div&gt;&lt;div&gt;&lt;b&gt;ArchiveAuditSession&lt;/b&gt;&lt;br&gt;&lt;/div&gt;" style="swimlane;fontStyle=0;align=center;verticalAlign=top;childLayout=stackLayout;horizontal=1;startSize=55;horizontalStack=0;resizeParent=1;resizeParentMax=0;resizeLast=0;collapsible=0;marginBottom=0;html=1;whiteSpace=wrap;" parent="1" vertex="1">
          <mxGeometry x="1000" y="419" width="150" height="123" as="geometry" />
        </mxCell>
        <mxCell id="enL9vVGVBLsAl_YUKNi3-37" value="attributes" style="text;html=1;strokeColor=none;fillColor=none;align=center;verticalAlign=middle;spacingLeft=4;spacingRight=4;overflow=hidden;rotatable=0;points=[[0,0.5],[1,0.5]];portConstraint=eastwest;whiteSpace=wrap;" parent="enL9vVGVBLsAl_YUKNi3-36" vertex="1">
          <mxGeometry y="55" width="150" height="20" as="geometry" />
        </mxCell>
        <mxCell id="enL9vVGVBLsAl_YUKNi3-38" value="archive : ArchiveDraft" style="text;html=1;strokeColor=none;fillColor=none;align=left;verticalAlign=middle;spacingLeft=4;spacingRight=4;overflow=hidden;rotatable=0;points=[[0,0.5],[1,0.5]];portConstraint=eastwest;whiteSpace=wrap;" parent="enL9vVGVBLsAl_YUKNi3-36" vertex="1">
          <mxGeometry y="75" width="150" height="20" as="geometry" />
        </mxCell>
        <mxCell id="enL9vVGVBLsAl_YUKNi3-39" value="" style="line;strokeWidth=1;fillColor=none;align=left;verticalAlign=middle;spacingTop=-1;spacingLeft=3;spacingRight=3;rotatable=0;labelPosition=right;points=[];portConstraint=eastwest;" parent="enL9vVGVBLsAl_YUKNi3-36" vertex="1">
          <mxGeometry y="95" width="150" height="8" as="geometry" />
        </mxCell>
        <mxCell id="enL9vVGVBLsAl_YUKNi3-40" value="operations" style="text;html=1;strokeColor=none;fillColor=none;align=center;verticalAlign=middle;spacingLeft=4;spacingRight=4;overflow=hidden;rotatable=0;points=[[0,0.5],[1,0.5]];portConstraint=eastwest;whiteSpace=wrap;" parent="enL9vVGVBLsAl_YUKNi3-36" vertex="1">
          <mxGeometry y="103" width="150" height="20" as="geometry" />
        </mxCell>
        <mxCell id="enL9vVGVBLsAl_YUKNi3-49" style="rounded=0;orthogonalLoop=1;jettySize=auto;html=1;" parent="1" source="enL9vVGVBLsAl_YUKNi3-42" target="enL9vVGVBLsAl_YUKNi3-19" edge="1">
          <mxGeometry relative="1" as="geometry" />
        </mxCell>
        <mxCell id="enL9vVGVBLsAl_YUKNi3-42" value="&lt;div&gt;&lt;br&gt;&lt;/div&gt;&lt;div&gt;&lt;b&gt;PromotionAuditSession&lt;/b&gt;&lt;br&gt;&lt;/div&gt;" style="swimlane;fontStyle=0;align=center;verticalAlign=top;childLayout=stackLayout;horizontal=1;startSize=55;horizontalStack=0;resizeParent=1;resizeParentMax=0;resizeLast=0;collapsible=0;marginBottom=0;html=1;whiteSpace=wrap;" parent="1" vertex="1">
          <mxGeometry x="1170" y="419" width="150" height="123" as="geometry" />
        </mxCell>
        <mxCell id="enL9vVGVBLsAl_YUKNi3-43" value="attributes" style="text;html=1;strokeColor=none;fillColor=none;align=center;verticalAlign=middle;spacingLeft=4;spacingRight=4;overflow=hidden;rotatable=0;points=[[0,0.5],[1,0.5]];portConstraint=eastwest;whiteSpace=wrap;" parent="enL9vVGVBLsAl_YUKNi3-42" vertex="1">
          <mxGeometry y="55" width="150" height="20" as="geometry" />
        </mxCell>
        <mxCell id="enL9vVGVBLsAl_YUKNi3-44" value="material : File" style="text;html=1;strokeColor=none;fillColor=none;align=left;verticalAlign=middle;spacingLeft=4;spacingRight=4;overflow=hidden;rotatable=0;points=[[0,0.5],[1,0.5]];portConstraint=eastwest;whiteSpace=wrap;" parent="enL9vVGVBLsAl_YUKNi3-42" vertex="1">
          <mxGeometry y="75" width="150" height="20" as="geometry" />
        </mxCell>
        <mxCell id="enL9vVGVBLsAl_YUKNi3-45" value="" style="line;strokeWidth=1;fillColor=none;align=left;verticalAlign=middle;spacingTop=-1;spacingLeft=3;spacingRight=3;rotatable=0;labelPosition=right;points=[];portConstraint=eastwest;" parent="enL9vVGVBLsAl_YUKNi3-42" vertex="1">
          <mxGeometry y="95" width="150" height="8" as="geometry" />
        </mxCell>
        <mxCell id="enL9vVGVBLsAl_YUKNi3-46" value="operations" style="text;html=1;strokeColor=none;fillColor=none;align=center;verticalAlign=middle;spacingLeft=4;spacingRight=4;overflow=hidden;rotatable=0;points=[[0,0.5],[1,0.5]];portConstraint=eastwest;whiteSpace=wrap;" parent="enL9vVGVBLsAl_YUKNi3-42" vertex="1">
          <mxGeometry y="103" width="150" height="20" as="geometry" />
        </mxCell>
        <mxCell id="f5BHtyjhVMu7mtpxL6ej-1" value="&lt;br&gt;&lt;b&gt;Archive&lt;/b&gt;" style="swimlane;fontStyle=0;align=center;verticalAlign=top;childLayout=stackLayout;horizontal=1;startSize=55;horizontalStack=0;resizeParent=1;resizeParentMax=0;resizeLast=0;collapsible=0;marginBottom=0;html=1;whiteSpace=wrap;" parent="1" vertex="1">
          <mxGeometry x="760" y="398" width="160" height="258" as="geometry" />
        </mxCell>
        <mxCell id="f5BHtyjhVMu7mtpxL6ej-2" value="attributes" style="text;html=1;strokeColor=none;fillColor=none;align=center;verticalAlign=middle;spacingLeft=4;spacingRight=4;overflow=hidden;rotatable=0;points=[[0,0.5],[1,0.5]];portConstraint=eastwest;whiteSpace=wrap;" parent="f5BHtyjhVMu7mtpxL6ej-1" vertex="1">
          <mxGeometry y="55" width="160" height="20" as="geometry" />
        </mxCell>
        <mxCell id="f5BHtyjhVMu7mtpxL6ej-3" value="archiveId : int" style="text;html=1;strokeColor=none;fillColor=none;align=left;verticalAlign=middle;spacingLeft=4;spacingRight=4;overflow=hidden;rotatable=0;points=[[0,0.5],[1,0.5]];portConstraint=eastwest;whiteSpace=wrap;" parent="f5BHtyjhVMu7mtpxL6ej-1" vertex="1">
          <mxGeometry y="75" width="160" height="20" as="geometry" />
        </mxCell>
        <mxCell id="f5BHtyjhVMu7mtpxL6ej-16" value="labels : Label[]" style="text;html=1;strokeColor=none;fillColor=none;align=left;verticalAlign=middle;spacingLeft=4;spacingRight=4;overflow=hidden;rotatable=0;points=[[0,0.5],[1,0.5]];portConstraint=eastwest;whiteSpace=wrap;" parent="f5BHtyjhVMu7mtpxL6ej-1" vertex="1">
          <mxGeometry y="95" width="160" height="20" as="geometry" />
        </mxCell>
        <mxCell id="f5BHtyjhVMu7mtpxL6ej-17" value="name : String" style="text;html=1;strokeColor=none;fillColor=none;align=left;verticalAlign=middle;spacingLeft=4;spacingRight=4;overflow=hidden;rotatable=0;points=[[0,0.5],[1,0.5]];portConstraint=eastwest;whiteSpace=wrap;" parent="f5BHtyjhVMu7mtpxL6ej-1" vertex="1">
          <mxGeometry y="115" width="160" height="20" as="geometry" />
        </mxCell>
        <mxCell id="hUAkBnMGf_9NmQbz4e-C-1" value="visible : bool" style="text;html=1;strokeColor=none;fillColor=none;align=left;verticalAlign=middle;spacingLeft=4;spacingRight=4;overflow=hidden;rotatable=0;points=[[0,0.5],[1,0.5]];portConstraint=eastwest;whiteSpace=wrap;" parent="f5BHtyjhVMu7mtpxL6ej-1" vertex="1">
          <mxGeometry y="135" width="160" height="20" as="geometry" />
        </mxCell>
        <mxCell id="f5BHtyjhVMu7mtpxL6ej-18" value="data : miRNAData" style="text;html=1;strokeColor=none;fillColor=none;align=left;verticalAlign=middle;spacingLeft=4;spacingRight=4;overflow=hidden;rotatable=0;points=[[0,0.5],[1,0.5]];portConstraint=eastwest;whiteSpace=wrap;" parent="f5BHtyjhVMu7mtpxL6ej-1" vertex="1">
          <mxGeometry y="155" width="160" height="20" as="geometry" />
        </mxCell>
        <mxCell id="hUAkBnMGf_9NmQbz4e-C-2" value="relatedArchives : Map&amp;lt;String, Archive&amp;gt;" style="text;html=1;strokeColor=none;fillColor=none;align=left;verticalAlign=middle;spacingLeft=4;spacingRight=4;overflow=hidden;rotatable=0;points=[[0,0.5],[1,0.5]];portConstraint=eastwest;whiteSpace=wrap;" parent="f5BHtyjhVMu7mtpxL6ej-1" vertex="1">
          <mxGeometry y="175" width="160" height="35" as="geometry" />
        </mxCell>
        <mxCell id="t6rukp6hisMEm0SzV4aa-58" value="relatedPaper : Paper[]" style="text;html=1;strokeColor=none;fillColor=none;align=left;verticalAlign=middle;spacingLeft=4;spacingRight=4;overflow=hidden;rotatable=0;points=[[0,0.5],[1,0.5]];portConstraint=eastwest;whiteSpace=wrap;" parent="f5BHtyjhVMu7mtpxL6ej-1" vertex="1">
          <mxGeometry y="210" width="160" height="20" as="geometry" />
        </mxCell>
        <mxCell id="f5BHtyjhVMu7mtpxL6ej-4" value="" style="line;strokeWidth=1;fillColor=none;align=left;verticalAlign=middle;spacingTop=-1;spacingLeft=3;spacingRight=3;rotatable=0;labelPosition=right;points=[];portConstraint=eastwest;" parent="f5BHtyjhVMu7mtpxL6ej-1" vertex="1">
          <mxGeometry y="230" width="160" height="8" as="geometry" />
        </mxCell>
        <mxCell id="f5BHtyjhVMu7mtpxL6ej-5" value="operations" style="text;html=1;strokeColor=none;fillColor=none;align=center;verticalAlign=middle;spacingLeft=4;spacingRight=4;overflow=hidden;rotatable=0;points=[[0,0.5],[1,0.5]];portConstraint=eastwest;whiteSpace=wrap;" parent="f5BHtyjhVMu7mtpxL6ej-1" vertex="1">
          <mxGeometry y="238" width="160" height="20" as="geometry" />
        </mxCell>
        <mxCell id="f5BHtyjhVMu7mtpxL6ej-7" value="&lt;br&gt;&lt;b&gt;ArchiveDraft&lt;/b&gt;" style="swimlane;fontStyle=0;align=center;verticalAlign=top;childLayout=stackLayout;horizontal=1;startSize=55;horizontalStack=0;resizeParent=1;resizeParentMax=0;resizeLast=0;collapsible=0;marginBottom=0;html=1;whiteSpace=wrap;" parent="1" vertex="1">
          <mxGeometry x="520" y="398" width="160" height="203" as="geometry" />
        </mxCell>
        <mxCell id="f5BHtyjhVMu7mtpxL6ej-8" value="attributes" style="text;html=1;strokeColor=none;fillColor=none;align=center;verticalAlign=middle;spacingLeft=4;spacingRight=4;overflow=hidden;rotatable=0;points=[[0,0.5],[1,0.5]];portConstraint=eastwest;whiteSpace=wrap;" parent="f5BHtyjhVMu7mtpxL6ej-7" vertex="1">
          <mxGeometry y="55" width="160" height="20" as="geometry" />
        </mxCell>
        <mxCell id="f5BHtyjhVMu7mtpxL6ej-9" value="draftId : int" style="text;html=1;strokeColor=none;fillColor=none;align=left;verticalAlign=middle;spacingLeft=4;spacingRight=4;overflow=hidden;rotatable=0;points=[[0,0.5],[1,0.5]];portConstraint=eastwest;whiteSpace=wrap;" parent="f5BHtyjhVMu7mtpxL6ej-7" vertex="1">
          <mxGeometry y="75" width="160" height="20" as="geometry" />
        </mxCell>
        <mxCell id="f5BHtyjhVMu7mtpxL6ej-14" value="creationDate : DateTime" style="text;html=1;strokeColor=none;fillColor=none;align=left;verticalAlign=middle;spacingLeft=4;spacingRight=4;overflow=hidden;rotatable=0;points=[[0,0.5],[1,0.5]];portConstraint=eastwest;whiteSpace=wrap;" parent="f5BHtyjhVMu7mtpxL6ej-7" vertex="1">
          <mxGeometry y="95" width="160" height="20" as="geometry" />
        </mxCell>
        <mxCell id="f5BHtyjhVMu7mtpxL6ej-15" value="lastEditDate : DateTime" style="text;html=1;strokeColor=none;fillColor=none;align=left;verticalAlign=middle;spacingLeft=4;spacingRight=4;overflow=hidden;rotatable=0;points=[[0,0.5],[1,0.5]];portConstraint=eastwest;whiteSpace=wrap;" parent="f5BHtyjhVMu7mtpxL6ej-7" vertex="1">
          <mxGeometry y="115" width="160" height="20" as="geometry" />
        </mxCell>
        <mxCell id="f5BHtyjhVMu7mtpxL6ej-10" value="" style="line;strokeWidth=1;fillColor=none;align=left;verticalAlign=middle;spacingTop=-1;spacingLeft=3;spacingRight=3;rotatable=0;labelPosition=right;points=[];portConstraint=eastwest;" parent="f5BHtyjhVMu7mtpxL6ej-7" vertex="1">
          <mxGeometry y="135" width="160" height="8" as="geometry" />
        </mxCell>
        <mxCell id="f5BHtyjhVMu7mtpxL6ej-11" value="operations" style="text;html=1;strokeColor=none;fillColor=none;align=center;verticalAlign=middle;spacingLeft=4;spacingRight=4;overflow=hidden;rotatable=0;points=[[0,0.5],[1,0.5]];portConstraint=eastwest;whiteSpace=wrap;" parent="f5BHtyjhVMu7mtpxL6ej-7" vertex="1">
          <mxGeometry y="143" width="160" height="20" as="geometry" />
        </mxCell>
        <mxCell id="f5BHtyjhVMu7mtpxL6ej-12" value="updateFromFile(file : File)" style="text;html=1;strokeColor=none;fillColor=none;align=left;verticalAlign=middle;spacingLeft=4;spacingRight=4;overflow=hidden;rotatable=0;points=[[0,0.5],[1,0.5]];portConstraint=eastwest;whiteSpace=wrap;" parent="f5BHtyjhVMu7mtpxL6ej-7" vertex="1">
          <mxGeometry y="163" width="160" height="20" as="geometry" />
        </mxCell>
        <mxCell id="hUAkBnMGf_9NmQbz4e-C-3" value="finfish() : Archive" style="text;html=1;strokeColor=none;fillColor=none;align=left;verticalAlign=middle;spacingLeft=4;spacingRight=4;overflow=hidden;rotatable=0;points=[[0,0.5],[1,0.5]];portConstraint=eastwest;whiteSpace=wrap;" parent="f5BHtyjhVMu7mtpxL6ej-7" vertex="1">
          <mxGeometry y="183" width="160" height="20" as="geometry" />
        </mxCell>
        <mxCell id="hUAkBnMGf_9NmQbz4e-C-6" style="edgeStyle=orthogonalEdgeStyle;rounded=0;orthogonalLoop=1;jettySize=auto;html=1;exitX=1;exitY=0.5;exitDx=0;exitDy=0;entryX=0;entryY=0.5;entryDx=0;entryDy=0;" parent="1" source="f5BHtyjhVMu7mtpxL6ej-8" target="f5BHtyjhVMu7mtpxL6ej-2" edge="1">
          <mxGeometry relative="1" as="geometry" />
        </mxCell>
        <mxCell id="hUAkBnMGf_9NmQbz4e-C-7" value="&lt;br&gt;&lt;b&gt;Label&lt;/b&gt;" style="swimlane;fontStyle=0;align=center;verticalAlign=top;childLayout=stackLayout;horizontal=1;startSize=55;horizontalStack=0;resizeParent=1;resizeParentMax=0;resizeLast=0;collapsible=0;marginBottom=0;html=1;whiteSpace=wrap;" parent="1" vertex="1">
          <mxGeometry x="2260" y="560" width="140" height="183" as="geometry" />
        </mxCell>
        <mxCell id="hUAkBnMGf_9NmQbz4e-C-8" value="attributes" style="text;html=1;strokeColor=none;fillColor=none;align=center;verticalAlign=middle;spacingLeft=4;spacingRight=4;overflow=hidden;rotatable=0;points=[[0,0.5],[1,0.5]];portConstraint=eastwest;whiteSpace=wrap;" parent="hUAkBnMGf_9NmQbz4e-C-7" vertex="1">
          <mxGeometry y="55" width="140" height="20" as="geometry" />
        </mxCell>
        <mxCell id="t6rukp6hisMEm0SzV4aa-1" value="labelId : int" style="text;html=1;strokeColor=none;fillColor=none;align=left;verticalAlign=middle;spacingLeft=4;spacingRight=4;overflow=hidden;rotatable=0;points=[[0,0.5],[1,0.5]];portConstraint=eastwest;whiteSpace=wrap;" parent="hUAkBnMGf_9NmQbz4e-C-7" vertex="1">
          <mxGeometry y="75" width="140" height="20" as="geometry" />
        </mxCell>
        <mxCell id="hUAkBnMGf_9NmQbz4e-C-9" value="name : String" style="text;html=1;strokeColor=none;fillColor=none;align=left;verticalAlign=middle;spacingLeft=4;spacingRight=4;overflow=hidden;rotatable=0;points=[[0,0.5],[1,0.5]];portConstraint=eastwest;whiteSpace=wrap;" parent="hUAkBnMGf_9NmQbz4e-C-7" vertex="1">
          <mxGeometry y="95" width="140" height="20" as="geometry" />
        </mxCell>
        <mxCell id="hUAkBnMGf_9NmQbz4e-C-22" value="description : String" style="text;html=1;strokeColor=none;fillColor=none;align=left;verticalAlign=middle;spacingLeft=4;spacingRight=4;overflow=hidden;rotatable=0;points=[[0,0.5],[1,0.5]];portConstraint=eastwest;whiteSpace=wrap;" parent="hUAkBnMGf_9NmQbz4e-C-7" vertex="1">
          <mxGeometry y="115" width="140" height="20" as="geometry" />
        </mxCell>
        <mxCell id="t6rukp6hisMEm0SzV4aa-59" value="relatedPaper : Paper[]" style="text;html=1;strokeColor=none;fillColor=none;align=left;verticalAlign=middle;spacingLeft=4;spacingRight=4;overflow=hidden;rotatable=0;points=[[0,0.5],[1,0.5]];portConstraint=eastwest;whiteSpace=wrap;" parent="hUAkBnMGf_9NmQbz4e-C-7" vertex="1">
          <mxGeometry y="135" width="140" height="20" as="geometry" />
        </mxCell>
        <mxCell id="hUAkBnMGf_9NmQbz4e-C-10" value="" style="line;strokeWidth=1;fillColor=none;align=left;verticalAlign=middle;spacingTop=-1;spacingLeft=3;spacingRight=3;rotatable=0;labelPosition=right;points=[];portConstraint=eastwest;" parent="hUAkBnMGf_9NmQbz4e-C-7" vertex="1">
          <mxGeometry y="155" width="140" height="8" as="geometry" />
        </mxCell>
        <mxCell id="hUAkBnMGf_9NmQbz4e-C-11" value="operations" style="text;html=1;strokeColor=none;fillColor=none;align=center;verticalAlign=middle;spacingLeft=4;spacingRight=4;overflow=hidden;rotatable=0;points=[[0,0.5],[1,0.5]];portConstraint=eastwest;whiteSpace=wrap;" parent="hUAkBnMGf_9NmQbz4e-C-7" vertex="1">
          <mxGeometry y="163" width="140" height="20" as="geometry" />
        </mxCell>
        <mxCell id="hUAkBnMGf_9NmQbz4e-C-13" value="&lt;br&gt;&lt;b&gt;LoginResult&lt;/b&gt;" style="swimlane;fontStyle=0;align=center;verticalAlign=top;childLayout=stackLayout;horizontal=1;startSize=55;horizontalStack=0;resizeParent=1;resizeParentMax=0;resizeLast=0;collapsible=0;marginBottom=0;html=1;whiteSpace=wrap;" parent="1" vertex="1">
          <mxGeometry x="240" y="762" width="160" height="163" as="geometry" />
        </mxCell>
        <mxCell id="hUAkBnMGf_9NmQbz4e-C-14" value="attributes" style="text;html=1;strokeColor=none;fillColor=none;align=center;verticalAlign=middle;spacingLeft=4;spacingRight=4;overflow=hidden;rotatable=0;points=[[0,0.5],[1,0.5]];portConstraint=eastwest;whiteSpace=wrap;" parent="hUAkBnMGf_9NmQbz4e-C-13" vertex="1">
          <mxGeometry y="55" width="160" height="20" as="geometry" />
        </mxCell>
        <mxCell id="hUAkBnMGf_9NmQbz4e-C-15" value="action : EnumLoginAction" style="text;html=1;strokeColor=none;fillColor=none;align=left;verticalAlign=middle;spacingLeft=4;spacingRight=4;overflow=hidden;rotatable=0;points=[[0,0.5],[1,0.5]];portConstraint=eastwest;whiteSpace=wrap;" parent="hUAkBnMGf_9NmQbz4e-C-13" vertex="1">
          <mxGeometry y="75" width="160" height="20" as="geometry" />
        </mxCell>
        <mxCell id="hUAkBnMGf_9NmQbz4e-C-19" value="result :EnumLoginResult" style="text;html=1;strokeColor=none;fillColor=none;align=left;verticalAlign=middle;spacingLeft=4;spacingRight=4;overflow=hidden;rotatable=0;points=[[0,0.5],[1,0.5]];portConstraint=eastwest;whiteSpace=wrap;" parent="hUAkBnMGf_9NmQbz4e-C-13" vertex="1">
          <mxGeometry y="95" width="160" height="20" as="geometry" />
        </mxCell>
        <mxCell id="hUAkBnMGf_9NmQbz4e-C-20" value="info : String" style="text;html=1;strokeColor=none;fillColor=none;align=left;verticalAlign=middle;spacingLeft=4;spacingRight=4;overflow=hidden;rotatable=0;points=[[0,0.5],[1,0.5]];portConstraint=eastwest;whiteSpace=wrap;" parent="hUAkBnMGf_9NmQbz4e-C-13" vertex="1">
          <mxGeometry y="115" width="160" height="20" as="geometry" />
        </mxCell>
        <mxCell id="hUAkBnMGf_9NmQbz4e-C-16" value="" style="line;strokeWidth=1;fillColor=none;align=left;verticalAlign=middle;spacingTop=-1;spacingLeft=3;spacingRight=3;rotatable=0;labelPosition=right;points=[];portConstraint=eastwest;" parent="hUAkBnMGf_9NmQbz4e-C-13" vertex="1">
          <mxGeometry y="135" width="160" height="8" as="geometry" />
        </mxCell>
        <mxCell id="hUAkBnMGf_9NmQbz4e-C-17" value="operations" style="text;html=1;strokeColor=none;fillColor=none;align=center;verticalAlign=middle;spacingLeft=4;spacingRight=4;overflow=hidden;rotatable=0;points=[[0,0.5],[1,0.5]];portConstraint=eastwest;whiteSpace=wrap;" parent="hUAkBnMGf_9NmQbz4e-C-13" vertex="1">
          <mxGeometry y="143" width="160" height="20" as="geometry" />
        </mxCell>
        <mxCell id="hUAkBnMGf_9NmQbz4e-C-23" value="&lt;br&gt;&lt;b&gt;LabelCluster&lt;/b&gt;" style="swimlane;fontStyle=0;align=center;verticalAlign=top;childLayout=stackLayout;horizontal=1;startSize=55;horizontalStack=0;resizeParent=1;resizeParentMax=0;resizeLast=0;collapsible=0;marginBottom=0;html=1;whiteSpace=wrap;" parent="1" vertex="1">
          <mxGeometry x="1960" y="40.00000000000001" width="160" height="158" as="geometry" />
        </mxCell>
        <mxCell id="hUAkBnMGf_9NmQbz4e-C-24" value="attributes" style="text;html=1;strokeColor=none;fillColor=none;align=center;verticalAlign=middle;spacingLeft=4;spacingRight=4;overflow=hidden;rotatable=0;points=[[0,0.5],[1,0.5]];portConstraint=eastwest;whiteSpace=wrap;" parent="hUAkBnMGf_9NmQbz4e-C-23" vertex="1">
          <mxGeometry y="55" width="160" height="20" as="geometry" />
        </mxCell>
        <mxCell id="hUAkBnMGf_9NmQbz4e-C-25" value="chromosome : int" style="text;html=1;strokeColor=none;fillColor=none;align=left;verticalAlign=middle;spacingLeft=4;spacingRight=4;overflow=hidden;rotatable=0;points=[[0,0.5],[1,0.5]];portConstraint=eastwest;whiteSpace=wrap;" parent="hUAkBnMGf_9NmQbz4e-C-23" vertex="1">
          <mxGeometry y="75" width="160" height="20" as="geometry" />
        </mxCell>
        <mxCell id="hUAkBnMGf_9NmQbz4e-C-29" value="location : EnumChromosomeLocation" style="text;html=1;strokeColor=none;fillColor=none;align=left;verticalAlign=middle;spacingLeft=4;spacingRight=4;overflow=hidden;rotatable=0;points=[[0,0.5],[1,0.5]];portConstraint=eastwest;whiteSpace=wrap;" parent="hUAkBnMGf_9NmQbz4e-C-23" vertex="1">
          <mxGeometry y="95" width="160" height="35" as="geometry" />
        </mxCell>
        <mxCell id="hUAkBnMGf_9NmQbz4e-C-26" value="" style="line;strokeWidth=1;fillColor=none;align=left;verticalAlign=middle;spacingTop=-1;spacingLeft=3;spacingRight=3;rotatable=0;labelPosition=right;points=[];portConstraint=eastwest;" parent="hUAkBnMGf_9NmQbz4e-C-23" vertex="1">
          <mxGeometry y="130" width="160" height="8" as="geometry" />
        </mxCell>
        <mxCell id="hUAkBnMGf_9NmQbz4e-C-27" value="operations" style="text;html=1;strokeColor=none;fillColor=none;align=center;verticalAlign=middle;spacingLeft=4;spacingRight=4;overflow=hidden;rotatable=0;points=[[0,0.5],[1,0.5]];portConstraint=eastwest;whiteSpace=wrap;" parent="hUAkBnMGf_9NmQbz4e-C-23" vertex="1">
          <mxGeometry y="138" width="160" height="20" as="geometry" />
        </mxCell>
        <mxCell id="t6rukp6hisMEm0SzV4aa-46" style="rounded=0;orthogonalLoop=1;jettySize=auto;html=1;exitX=1;exitY=0.5;exitDx=0;exitDy=0;" parent="1" source="t6rukp6hisMEm0SzV4aa-2" target="hUAkBnMGf_9NmQbz4e-C-7" edge="1">
          <mxGeometry relative="1" as="geometry">
            <mxPoint x="2200" y="99.99999999999977" as="targetPoint" />
          </mxGeometry>
        </mxCell>
        <mxCell id="t6rukp6hisMEm0SzV4aa-2" value="&lt;br&gt;&lt;b&gt;LabelRelatedDisease&lt;/b&gt;" style="swimlane;fontStyle=0;align=center;verticalAlign=top;childLayout=stackLayout;horizontal=1;startSize=55;horizontalStack=0;resizeParent=1;resizeParentMax=0;resizeLast=0;collapsible=0;marginBottom=0;html=1;whiteSpace=wrap;" parent="1" vertex="1">
          <mxGeometry x="1960" y="398" width="160" height="143" as="geometry" />
        </mxCell>
        <mxCell id="t6rukp6hisMEm0SzV4aa-3" value="attributes" style="text;html=1;strokeColor=none;fillColor=none;align=center;verticalAlign=middle;spacingLeft=4;spacingRight=4;overflow=hidden;rotatable=0;points=[[0,0.5],[1,0.5]];portConstraint=eastwest;whiteSpace=wrap;" parent="t6rukp6hisMEm0SzV4aa-2" vertex="1">
          <mxGeometry y="55" width="160" height="20" as="geometry" />
        </mxCell>
        <mxCell id="t6rukp6hisMEm0SzV4aa-8" value="&lt;div&gt;disease : String&lt;br&gt;&lt;/div&gt;" style="text;html=1;strokeColor=none;fillColor=none;align=left;verticalAlign=middle;spacingLeft=4;spacingRight=4;overflow=hidden;rotatable=0;points=[[0,0.5],[1,0.5]];portConstraint=eastwest;whiteSpace=wrap;" parent="t6rukp6hisMEm0SzV4aa-2" vertex="1">
          <mxGeometry y="75" width="160" height="20" as="geometry" />
        </mxCell>
        <mxCell id="t6rukp6hisMEm0SzV4aa-20" value="symptom : String" style="text;html=1;strokeColor=none;fillColor=none;align=left;verticalAlign=middle;spacingLeft=4;spacingRight=4;overflow=hidden;rotatable=0;points=[[0,0.5],[1,0.5]];portConstraint=eastwest;whiteSpace=wrap;" parent="t6rukp6hisMEm0SzV4aa-2" vertex="1">
          <mxGeometry y="95" width="160" height="20" as="geometry" />
        </mxCell>
        <mxCell id="t6rukp6hisMEm0SzV4aa-6" value="" style="line;strokeWidth=1;fillColor=none;align=left;verticalAlign=middle;spacingTop=-1;spacingLeft=3;spacingRight=3;rotatable=0;labelPosition=right;points=[];portConstraint=eastwest;" parent="t6rukp6hisMEm0SzV4aa-2" vertex="1">
          <mxGeometry y="115" width="160" height="8" as="geometry" />
        </mxCell>
        <mxCell id="t6rukp6hisMEm0SzV4aa-7" value="operations" style="text;html=1;strokeColor=none;fillColor=none;align=center;verticalAlign=middle;spacingLeft=4;spacingRight=4;overflow=hidden;rotatable=0;points=[[0,0.5],[1,0.5]];portConstraint=eastwest;whiteSpace=wrap;" parent="t6rukp6hisMEm0SzV4aa-2" vertex="1">
          <mxGeometry y="123" width="160" height="20" as="geometry" />
        </mxCell>
        <mxCell id="t6rukp6hisMEm0SzV4aa-45" style="rounded=0;orthogonalLoop=1;jettySize=auto;html=1;exitX=1;exitY=0.25;exitDx=0;exitDy=0;" parent="1" source="t6rukp6hisMEm0SzV4aa-9" target="hUAkBnMGf_9NmQbz4e-C-7" edge="1">
          <mxGeometry relative="1" as="geometry">
            <mxPoint x="2200" y="99.99999999999977" as="targetPoint" />
          </mxGeometry>
        </mxCell>
        <mxCell id="t6rukp6hisMEm0SzV4aa-9" value="&lt;br&gt;&lt;b&gt;LabelFamily&lt;/b&gt;" style="swimlane;fontStyle=0;align=center;verticalAlign=top;childLayout=stackLayout;horizontal=1;startSize=55;horizontalStack=0;resizeParent=1;resizeParentMax=0;resizeLast=0;collapsible=0;marginBottom=0;html=1;whiteSpace=wrap;" parent="1" vertex="1">
          <mxGeometry x="1960" y="238" width="160" height="143" as="geometry" />
        </mxCell>
        <mxCell id="t6rukp6hisMEm0SzV4aa-10" value="attributes" style="text;html=1;strokeColor=none;fillColor=none;align=center;verticalAlign=middle;spacingLeft=4;spacingRight=4;overflow=hidden;rotatable=0;points=[[0,0.5],[1,0.5]];portConstraint=eastwest;whiteSpace=wrap;" parent="t6rukp6hisMEm0SzV4aa-9" vertex="1">
          <mxGeometry y="55" width="160" height="20" as="geometry" />
        </mxCell>
        <mxCell id="t6rukp6hisMEm0SzV4aa-11" value="layer : EnumFeatureLayer" style="text;html=1;strokeColor=none;fillColor=none;align=left;verticalAlign=middle;spacingLeft=4;spacingRight=4;overflow=hidden;rotatable=0;points=[[0,0.5],[1,0.5]];portConstraint=eastwest;whiteSpace=wrap;" parent="t6rukp6hisMEm0SzV4aa-9" vertex="1">
          <mxGeometry y="75" width="160" height="20" as="geometry" />
        </mxCell>
        <mxCell id="t6rukp6hisMEm0SzV4aa-12" value="featurePoint : String" style="text;html=1;strokeColor=none;fillColor=none;align=left;verticalAlign=middle;spacingLeft=4;spacingRight=4;overflow=hidden;rotatable=0;points=[[0,0.5],[1,0.5]];portConstraint=eastwest;whiteSpace=wrap;" parent="t6rukp6hisMEm0SzV4aa-9" vertex="1">
          <mxGeometry y="95" width="160" height="20" as="geometry" />
        </mxCell>
        <mxCell id="t6rukp6hisMEm0SzV4aa-13" value="" style="line;strokeWidth=1;fillColor=none;align=left;verticalAlign=middle;spacingTop=-1;spacingLeft=3;spacingRight=3;rotatable=0;labelPosition=right;points=[];portConstraint=eastwest;" parent="t6rukp6hisMEm0SzV4aa-9" vertex="1">
          <mxGeometry y="115" width="160" height="8" as="geometry" />
        </mxCell>
        <mxCell id="t6rukp6hisMEm0SzV4aa-14" value="operations" style="text;html=1;strokeColor=none;fillColor=none;align=center;verticalAlign=middle;spacingLeft=4;spacingRight=4;overflow=hidden;rotatable=0;points=[[0,0.5],[1,0.5]];portConstraint=eastwest;whiteSpace=wrap;" parent="t6rukp6hisMEm0SzV4aa-9" vertex="1">
          <mxGeometry y="123" width="160" height="20" as="geometry" />
        </mxCell>
        <mxCell id="t6rukp6hisMEm0SzV4aa-48" style="rounded=0;orthogonalLoop=1;jettySize=auto;html=1;exitX=1;exitY=0.25;exitDx=0;exitDy=0;" parent="1" source="t6rukp6hisMEm0SzV4aa-15" target="hUAkBnMGf_9NmQbz4e-C-7" edge="1">
          <mxGeometry relative="1" as="geometry">
            <mxPoint x="2200" y="99.99999999999977" as="targetPoint" />
          </mxGeometry>
        </mxCell>
        <mxCell id="t6rukp6hisMEm0SzV4aa-15" value="&lt;br&gt;&lt;b&gt;LabelTranscriptFactor&lt;/b&gt;" style="swimlane;fontStyle=0;align=center;verticalAlign=top;childLayout=stackLayout;horizontal=1;startSize=55;horizontalStack=0;resizeParent=1;resizeParentMax=0;resizeLast=0;collapsible=0;marginBottom=0;html=1;whiteSpace=wrap;" parent="1" vertex="1">
          <mxGeometry x="1960" y="718" width="160" height="158" as="geometry" />
        </mxCell>
        <mxCell id="t6rukp6hisMEm0SzV4aa-16" value="attributes" style="text;html=1;strokeColor=none;fillColor=none;align=center;verticalAlign=middle;spacingLeft=4;spacingRight=4;overflow=hidden;rotatable=0;points=[[0,0.5],[1,0.5]];portConstraint=eastwest;whiteSpace=wrap;" parent="t6rukp6hisMEm0SzV4aa-15" vertex="1">
          <mxGeometry y="55" width="160" height="20" as="geometry" />
        </mxCell>
        <mxCell id="t6rukp6hisMEm0SzV4aa-27" value="&lt;div&gt;type : EnumTranscriptFactorType&lt;br&gt;&lt;/div&gt;" style="text;html=1;strokeColor=none;fillColor=none;align=left;verticalAlign=middle;spacingLeft=4;spacingRight=4;overflow=hidden;rotatable=0;points=[[0,0.5],[1,0.5]];portConstraint=eastwest;whiteSpace=wrap;" parent="t6rukp6hisMEm0SzV4aa-15" vertex="1">
          <mxGeometry y="75" width="160" height="35" as="geometry" />
        </mxCell>
        <mxCell id="t6rukp6hisMEm0SzV4aa-17" value="protainFactor : Protain" style="text;html=1;strokeColor=none;fillColor=none;align=left;verticalAlign=middle;spacingLeft=4;spacingRight=4;overflow=hidden;rotatable=0;points=[[0,0.5],[1,0.5]];portConstraint=eastwest;whiteSpace=wrap;" parent="t6rukp6hisMEm0SzV4aa-15" vertex="1">
          <mxGeometry y="110" width="160" height="20" as="geometry" />
        </mxCell>
        <mxCell id="t6rukp6hisMEm0SzV4aa-18" value="" style="line;strokeWidth=1;fillColor=none;align=left;verticalAlign=middle;spacingTop=-1;spacingLeft=3;spacingRight=3;rotatable=0;labelPosition=right;points=[];portConstraint=eastwest;" parent="t6rukp6hisMEm0SzV4aa-15" vertex="1">
          <mxGeometry y="130" width="160" height="8" as="geometry" />
        </mxCell>
        <mxCell id="t6rukp6hisMEm0SzV4aa-19" value="operations" style="text;html=1;strokeColor=none;fillColor=none;align=center;verticalAlign=middle;spacingLeft=4;spacingRight=4;overflow=hidden;rotatable=0;points=[[0,0.5],[1,0.5]];portConstraint=eastwest;whiteSpace=wrap;" parent="t6rukp6hisMEm0SzV4aa-15" vertex="1">
          <mxGeometry y="138" width="160" height="20" as="geometry" />
        </mxCell>
        <mxCell id="t6rukp6hisMEm0SzV4aa-47" style="rounded=0;orthogonalLoop=1;jettySize=auto;html=1;exitX=1;exitY=0.25;exitDx=0;exitDy=0;" parent="1" source="t6rukp6hisMEm0SzV4aa-21" target="hUAkBnMGf_9NmQbz4e-C-7" edge="1">
          <mxGeometry relative="1" as="geometry">
            <mxPoint x="2200" y="99.99999999999977" as="targetPoint" />
          </mxGeometry>
        </mxCell>
        <mxCell id="t6rukp6hisMEm0SzV4aa-21" value="&lt;br&gt;&lt;b&gt;LabelBioFunction&lt;/b&gt;" style="swimlane;fontStyle=0;align=center;verticalAlign=top;childLayout=stackLayout;horizontal=1;startSize=55;horizontalStack=0;resizeParent=1;resizeParentMax=0;resizeLast=0;collapsible=0;marginBottom=0;html=1;whiteSpace=wrap;" parent="1" vertex="1">
          <mxGeometry x="1960" y="558" width="160" height="143" as="geometry" />
        </mxCell>
        <mxCell id="t6rukp6hisMEm0SzV4aa-22" value="attributes" style="text;html=1;strokeColor=none;fillColor=none;align=center;verticalAlign=middle;spacingLeft=4;spacingRight=4;overflow=hidden;rotatable=0;points=[[0,0.5],[1,0.5]];portConstraint=eastwest;whiteSpace=wrap;" parent="t6rukp6hisMEm0SzV4aa-21" vertex="1">
          <mxGeometry y="55" width="160" height="20" as="geometry" />
        </mxCell>
        <mxCell id="t6rukp6hisMEm0SzV4aa-28" value="ontology : EnumOntology" style="text;html=1;strokeColor=none;fillColor=none;align=left;verticalAlign=middle;spacingLeft=4;spacingRight=4;overflow=hidden;rotatable=0;points=[[0,0.5],[1,0.5]];portConstraint=eastwest;whiteSpace=wrap;" parent="t6rukp6hisMEm0SzV4aa-21" vertex="1">
          <mxGeometry y="75" width="160" height="20" as="geometry" />
        </mxCell>
        <mxCell id="t6rukp6hisMEm0SzV4aa-23" value="function : String" style="text;html=1;strokeColor=none;fillColor=none;align=left;verticalAlign=middle;spacingLeft=4;spacingRight=4;overflow=hidden;rotatable=0;points=[[0,0.5],[1,0.5]];portConstraint=eastwest;whiteSpace=wrap;" parent="t6rukp6hisMEm0SzV4aa-21" vertex="1">
          <mxGeometry y="95" width="160" height="20" as="geometry" />
        </mxCell>
        <mxCell id="t6rukp6hisMEm0SzV4aa-25" value="" style="line;strokeWidth=1;fillColor=none;align=left;verticalAlign=middle;spacingTop=-1;spacingLeft=3;spacingRight=3;rotatable=0;labelPosition=right;points=[];portConstraint=eastwest;" parent="t6rukp6hisMEm0SzV4aa-21" vertex="1">
          <mxGeometry y="115" width="160" height="8" as="geometry" />
        </mxCell>
        <mxCell id="t6rukp6hisMEm0SzV4aa-26" value="operations" style="text;html=1;strokeColor=none;fillColor=none;align=center;verticalAlign=middle;spacingLeft=4;spacingRight=4;overflow=hidden;rotatable=0;points=[[0,0.5],[1,0.5]];portConstraint=eastwest;whiteSpace=wrap;" parent="t6rukp6hisMEm0SzV4aa-21" vertex="1">
          <mxGeometry y="123" width="160" height="20" as="geometry" />
        </mxCell>
        <mxCell id="t6rukp6hisMEm0SzV4aa-50" style="rounded=0;orthogonalLoop=1;jettySize=auto;html=1;exitX=1;exitY=0.25;exitDx=0;exitDy=0;" parent="1" source="t6rukp6hisMEm0SzV4aa-29" target="hUAkBnMGf_9NmQbz4e-C-7" edge="1">
          <mxGeometry relative="1" as="geometry" />
        </mxCell>
        <mxCell id="t6rukp6hisMEm0SzV4aa-29" value="&lt;br&gt;&lt;b&gt;LabelSpicificExpression&lt;/b&gt;" style="swimlane;fontStyle=0;align=center;verticalAlign=top;childLayout=stackLayout;horizontal=1;startSize=55;horizontalStack=0;resizeParent=1;resizeParentMax=0;resizeLast=0;collapsible=0;marginBottom=0;html=1;whiteSpace=wrap;" parent="1" vertex="1">
          <mxGeometry x="1960" y="890" width="160" height="173" as="geometry" />
        </mxCell>
        <mxCell id="t6rukp6hisMEm0SzV4aa-30" value="attributes" style="text;html=1;strokeColor=none;fillColor=none;align=center;verticalAlign=middle;spacingLeft=4;spacingRight=4;overflow=hidden;rotatable=0;points=[[0,0.5],[1,0.5]];portConstraint=eastwest;whiteSpace=wrap;" parent="t6rukp6hisMEm0SzV4aa-29" vertex="1">
          <mxGeometry y="55" width="160" height="20" as="geometry" />
        </mxCell>
        <mxCell id="t6rukp6hisMEm0SzV4aa-31" value="biologicialTissueType : String" style="text;html=1;strokeColor=none;fillColor=none;align=left;verticalAlign=middle;spacingLeft=4;spacingRight=4;overflow=hidden;rotatable=0;points=[[0,0.5],[1,0.5]];portConstraint=eastwest;whiteSpace=wrap;" parent="t6rukp6hisMEm0SzV4aa-29" vertex="1">
          <mxGeometry y="75" width="160" height="35" as="geometry" />
        </mxCell>
        <mxCell id="t6rukp6hisMEm0SzV4aa-32" value="expressionFeature : EnumExpressionFeature" style="text;html=1;strokeColor=none;fillColor=none;align=left;verticalAlign=middle;spacingLeft=4;spacingRight=4;overflow=hidden;rotatable=0;points=[[0,0.5],[1,0.5]];portConstraint=eastwest;whiteSpace=wrap;" parent="t6rukp6hisMEm0SzV4aa-29" vertex="1">
          <mxGeometry y="110" width="160" height="35" as="geometry" />
        </mxCell>
        <mxCell id="t6rukp6hisMEm0SzV4aa-33" value="" style="line;strokeWidth=1;fillColor=none;align=left;verticalAlign=middle;spacingTop=-1;spacingLeft=3;spacingRight=3;rotatable=0;labelPosition=right;points=[];portConstraint=eastwest;" parent="t6rukp6hisMEm0SzV4aa-29" vertex="1">
          <mxGeometry y="145" width="160" height="8" as="geometry" />
        </mxCell>
        <mxCell id="t6rukp6hisMEm0SzV4aa-34" value="operations" style="text;html=1;strokeColor=none;fillColor=none;align=center;verticalAlign=middle;spacingLeft=4;spacingRight=4;overflow=hidden;rotatable=0;points=[[0,0.5],[1,0.5]];portConstraint=eastwest;whiteSpace=wrap;" parent="t6rukp6hisMEm0SzV4aa-29" vertex="1">
          <mxGeometry y="153" width="160" height="20" as="geometry" />
        </mxCell>
        <mxCell id="t6rukp6hisMEm0SzV4aa-51" style="rounded=0;orthogonalLoop=1;jettySize=auto;html=1;exitX=1;exitY=0.25;exitDx=0;exitDy=0;" parent="1" source="t6rukp6hisMEm0SzV4aa-35" target="hUAkBnMGf_9NmQbz4e-C-7" edge="1">
          <mxGeometry relative="1" as="geometry" />
        </mxCell>
        <mxCell id="t6rukp6hisMEm0SzV4aa-35" value="&lt;br&gt;&lt;b&gt;LabelTargetGene&lt;/b&gt;" style="swimlane;fontStyle=0;align=center;verticalAlign=top;childLayout=stackLayout;horizontal=1;startSize=55;horizontalStack=0;resizeParent=1;resizeParentMax=0;resizeLast=0;collapsible=0;marginBottom=0;html=1;whiteSpace=wrap;" parent="1" vertex="1">
          <mxGeometry x="1960" y="1080" width="160" height="123" as="geometry" />
        </mxCell>
        <mxCell id="t6rukp6hisMEm0SzV4aa-36" value="attributes" style="text;html=1;strokeColor=none;fillColor=none;align=center;verticalAlign=middle;spacingLeft=4;spacingRight=4;overflow=hidden;rotatable=0;points=[[0,0.5],[1,0.5]];portConstraint=eastwest;whiteSpace=wrap;" parent="t6rukp6hisMEm0SzV4aa-35" vertex="1">
          <mxGeometry y="55" width="160" height="20" as="geometry" />
        </mxCell>
        <mxCell id="t6rukp6hisMEm0SzV4aa-37" value="targetGene :Gene" style="text;html=1;strokeColor=none;fillColor=none;align=left;verticalAlign=middle;spacingLeft=4;spacingRight=4;overflow=hidden;rotatable=0;points=[[0,0.5],[1,0.5]];portConstraint=eastwest;whiteSpace=wrap;" parent="t6rukp6hisMEm0SzV4aa-35" vertex="1">
          <mxGeometry y="75" width="160" height="20" as="geometry" />
        </mxCell>
        <mxCell id="t6rukp6hisMEm0SzV4aa-39" value="" style="line;strokeWidth=1;fillColor=none;align=left;verticalAlign=middle;spacingTop=-1;spacingLeft=3;spacingRight=3;rotatable=0;labelPosition=right;points=[];portConstraint=eastwest;" parent="t6rukp6hisMEm0SzV4aa-35" vertex="1">
          <mxGeometry y="95" width="160" height="8" as="geometry" />
        </mxCell>
        <mxCell id="t6rukp6hisMEm0SzV4aa-40" value="operations" style="text;html=1;strokeColor=none;fillColor=none;align=center;verticalAlign=middle;spacingLeft=4;spacingRight=4;overflow=hidden;rotatable=0;points=[[0,0.5],[1,0.5]];portConstraint=eastwest;whiteSpace=wrap;" parent="t6rukp6hisMEm0SzV4aa-35" vertex="1">
          <mxGeometry y="103" width="160" height="20" as="geometry" />
        </mxCell>
        <mxCell id="t6rukp6hisMEm0SzV4aa-44" style="rounded=0;orthogonalLoop=1;jettySize=auto;html=1;exitX=1;exitY=0.5;exitDx=0;exitDy=0;" parent="1" source="hUAkBnMGf_9NmQbz4e-C-24" target="hUAkBnMGf_9NmQbz4e-C-7" edge="1">
          <mxGeometry relative="1" as="geometry" />
        </mxCell>
        <mxCell id="t6rukp6hisMEm0SzV4aa-52" value="&lt;div&gt;&lt;br&gt;&lt;/div&gt;&lt;div&gt;&lt;b&gt;miRnaData&lt;/b&gt;&lt;/div&gt;" style="swimlane;fontStyle=0;align=center;verticalAlign=top;childLayout=stackLayout;horizontal=1;startSize=55;horizontalStack=0;resizeParent=1;resizeParentMax=0;resizeLast=0;collapsible=0;marginBottom=0;html=1;whiteSpace=wrap;" parent="1" vertex="1">
          <mxGeometry x="480" y="762" width="140" height="123" as="geometry" />
        </mxCell>
        <mxCell id="t6rukp6hisMEm0SzV4aa-53" value="attributes" style="text;html=1;strokeColor=none;fillColor=none;align=center;verticalAlign=middle;spacingLeft=4;spacingRight=4;overflow=hidden;rotatable=0;points=[[0,0.5],[1,0.5]];portConstraint=eastwest;whiteSpace=wrap;" parent="t6rukp6hisMEm0SzV4aa-52" vertex="1">
          <mxGeometry y="55" width="140" height="20" as="geometry" />
        </mxCell>
        <mxCell id="t6rukp6hisMEm0SzV4aa-54" value="baseSequence : byte[]" style="text;html=1;strokeColor=none;fillColor=none;align=left;verticalAlign=middle;spacingLeft=4;spacingRight=4;overflow=hidden;rotatable=0;points=[[0,0.5],[1,0.5]];portConstraint=eastwest;whiteSpace=wrap;" parent="t6rukp6hisMEm0SzV4aa-52" vertex="1">
          <mxGeometry y="75" width="140" height="20" as="geometry" />
        </mxCell>
        <mxCell id="t6rukp6hisMEm0SzV4aa-55" value="" style="line;strokeWidth=1;fillColor=none;align=left;verticalAlign=middle;spacingTop=-1;spacingLeft=3;spacingRight=3;rotatable=0;labelPosition=right;points=[];portConstraint=eastwest;" parent="t6rukp6hisMEm0SzV4aa-52" vertex="1">
          <mxGeometry y="95" width="140" height="8" as="geometry" />
        </mxCell>
        <mxCell id="t6rukp6hisMEm0SzV4aa-56" value="operations" style="text;html=1;strokeColor=none;fillColor=none;align=center;verticalAlign=middle;spacingLeft=4;spacingRight=4;overflow=hidden;rotatable=0;points=[[0,0.5],[1,0.5]];portConstraint=eastwest;whiteSpace=wrap;" parent="t6rukp6hisMEm0SzV4aa-52" vertex="1">
          <mxGeometry y="103" width="140" height="20" as="geometry" />
        </mxCell>
        <mxCell id="t6rukp6hisMEm0SzV4aa-66" value="&lt;br&gt;&lt;b&gt;Paper&lt;/b&gt;" style="swimlane;fontStyle=0;align=center;verticalAlign=top;childLayout=stackLayout;horizontal=1;startSize=55;horizontalStack=0;resizeParent=1;resizeParentMax=0;resizeLast=0;collapsible=0;marginBottom=0;html=1;whiteSpace=wrap;" parent="1" vertex="1">
          <mxGeometry x="820" y="810" width="140" height="238" as="geometry" />
        </mxCell>
        <mxCell id="t6rukp6hisMEm0SzV4aa-67" value="attributes" style="text;html=1;strokeColor=none;fillColor=none;align=center;verticalAlign=middle;spacingLeft=4;spacingRight=4;overflow=hidden;rotatable=0;points=[[0,0.5],[1,0.5]];portConstraint=eastwest;whiteSpace=wrap;" parent="t6rukp6hisMEm0SzV4aa-66" vertex="1">
          <mxGeometry y="55" width="140" height="20" as="geometry" />
        </mxCell>
        <mxCell id="t6rukp6hisMEm0SzV4aa-68" value="name : String" style="text;html=1;strokeColor=none;fillColor=none;align=left;verticalAlign=middle;spacingLeft=4;spacingRight=4;overflow=hidden;rotatable=0;points=[[0,0.5],[1,0.5]];portConstraint=eastwest;whiteSpace=wrap;" parent="t6rukp6hisMEm0SzV4aa-66" vertex="1">
          <mxGeometry y="75" width="140" height="20" as="geometry" />
        </mxCell>
        <mxCell id="t6rukp6hisMEm0SzV4aa-72" value="releaseDate : DateTime" style="text;html=1;strokeColor=none;fillColor=none;align=left;verticalAlign=middle;spacingLeft=4;spacingRight=4;overflow=hidden;rotatable=0;points=[[0,0.5],[1,0.5]];portConstraint=eastwest;whiteSpace=wrap;" parent="t6rukp6hisMEm0SzV4aa-66" vertex="1">
          <mxGeometry y="95" width="140" height="20" as="geometry" />
        </mxCell>
        <mxCell id="t6rukp6hisMEm0SzV4aa-75" value="paperType EnumPaperType" style="text;html=1;strokeColor=none;fillColor=none;align=left;verticalAlign=middle;spacingLeft=4;spacingRight=4;overflow=hidden;rotatable=0;points=[[0,0.5],[1,0.5]];portConstraint=eastwest;whiteSpace=wrap;" parent="t6rukp6hisMEm0SzV4aa-66" vertex="1">
          <mxGeometry y="115" width="140" height="35" as="geometry" />
        </mxCell>
        <mxCell id="t6rukp6hisMEm0SzV4aa-76" value="periodical : String" style="text;html=1;strokeColor=none;fillColor=none;align=left;verticalAlign=middle;spacingLeft=4;spacingRight=4;overflow=hidden;rotatable=0;points=[[0,0.5],[1,0.5]];portConstraint=eastwest;whiteSpace=wrap;" parent="t6rukp6hisMEm0SzV4aa-66" vertex="1">
          <mxGeometry y="150" width="140" height="20" as="geometry" />
        </mxCell>
        <mxCell id="t6rukp6hisMEm0SzV4aa-73" value="Author : Srtring" style="text;html=1;strokeColor=none;fillColor=none;align=left;verticalAlign=middle;spacingLeft=4;spacingRight=4;overflow=hidden;rotatable=0;points=[[0,0.5],[1,0.5]];portConstraint=eastwest;whiteSpace=wrap;" parent="t6rukp6hisMEm0SzV4aa-66" vertex="1">
          <mxGeometry y="170" width="140" height="20" as="geometry" />
        </mxCell>
        <mxCell id="t6rukp6hisMEm0SzV4aa-74" value="DOI : String" style="text;html=1;strokeColor=none;fillColor=none;align=left;verticalAlign=middle;spacingLeft=4;spacingRight=4;overflow=hidden;rotatable=0;points=[[0,0.5],[1,0.5]];portConstraint=eastwest;whiteSpace=wrap;" parent="t6rukp6hisMEm0SzV4aa-66" vertex="1">
          <mxGeometry y="190" width="140" height="20" as="geometry" />
        </mxCell>
        <mxCell id="t6rukp6hisMEm0SzV4aa-69" value="" style="line;strokeWidth=1;fillColor=none;align=left;verticalAlign=middle;spacingTop=-1;spacingLeft=3;spacingRight=3;rotatable=0;labelPosition=right;points=[];portConstraint=eastwest;" parent="t6rukp6hisMEm0SzV4aa-66" vertex="1">
          <mxGeometry y="210" width="140" height="8" as="geometry" />
        </mxCell>
        <mxCell id="t6rukp6hisMEm0SzV4aa-70" value="operations" style="text;html=1;strokeColor=none;fillColor=none;align=center;verticalAlign=middle;spacingLeft=4;spacingRight=4;overflow=hidden;rotatable=0;points=[[0,0.5],[1,0.5]];portConstraint=eastwest;whiteSpace=wrap;" parent="t6rukp6hisMEm0SzV4aa-66" vertex="1">
          <mxGeometry y="218" width="140" height="20" as="geometry" />
        </mxCell>
      </root>
    </mxGraphModel>
  </diagram>
</mxfile>
